
<svg width="32" height="32" viewBox="0 0 32 32" fill="none" xmlns="http://www.w3.org/2000/svg">
<g clip-path="url(#clip0_17961_119617)">
<rect y="-0.000396729" width="32" height="32" rx="16" fill="#C2D6FF"/>
<path d="M11.0239 11.8668C11.1076 12.0777 11.2444 12.271 11.4121 12.4467C11.8092 12.8621 12.3801 13.1766 12.8318 13.3814C12.8308 13.4041 12.8295 13.433 12.8279 13.4682C12.8151 13.7837 12.7798 14.5853 12.7199 15.5755C12.61 17.3952 12.417 19.8509 12.1272 21.0924C12.1372 21.0895 12.1442 21.0873 12.1477 21.086H12.1481C12.1481 21.086 12.1493 21.0854 12.15 21.0854C12.1503 21.0854 12.1503 21.085 12.1503 21.085L12.1631 21.4732C12.1631 21.4732 15.0765 25.8666 15.006 26.1721C14.9842 26.266 14.7589 26.5571 14.4451 26.919C15.5609 27.3123 16.5277 27.0786 16.5277 27.0786C16.1427 26.6446 15.8513 26.2795 15.8266 26.1721C15.7561 25.8666 18.6695 21.4732 18.6695 21.4732L18.6824 21.085L18.7654 18.554C19.5183 18.8069 20.3021 18.9342 21.0076 18.7835C21.3022 18.7207 21.583 18.6091 21.8423 18.4383C25.6254 15.9457 19.7379 7.70293 19.7379 7.70293C19.7379 7.70293 19.7321 8.14111 19.2898 8.42223C19.118 8.53122 18.8805 8.61648 18.5519 8.64308C17.3765 8.73829 15.693 7.96 14.7243 7.8648C13.7556 7.7696 13.7078 7.97603 13.7078 7.97603C13.7078 7.97603 14.3909 10.2154 14.2954 10.6439C14.2002 11.0728 14.0098 11.5174 14.0098 11.5174C14.0098 11.5174 13.6761 9.78647 12.8661 9.77044C12.0561 9.75474 10.5633 10.7077 11.0239 11.8668Z" fill="#F3BBB0" stroke="black" stroke-width="0.284929" stroke-linecap="round" stroke-linejoin="round"/>
<path d="M11.4081 34.4459H18.9512V27.2881H11.4081V34.4459Z" fill="#BF9EF9" stroke="black" stroke-width="0.284929" stroke-linecap="round" stroke-linejoin="round"/>
<path d="M4.83336 32.861C5.40745 33.2264 7.88751 32.842 9.18315 32.608C8.66451 32.0535 8.28242 31.6076 8.15388 31.3772C7.57273 30.3354 6.61142 28.4522 6.61142 28.4522L8.59463 27.1703L6.8717 25.6878C6.8717 25.6878 8.84466 22.9971 9.613 22.206C9.58223 22.2144 8.83151 22.4179 7.80833 22.7128C5.69049 23.3228 2.40555 24.3223 1.92698 24.7848C1.73657 24.9688 1.55803 25.1884 1.39712 25.4137C0.954123 26.034 0.645438 26.6985 0.592869 26.786C0.521387 26.9052 4.04706 32.3606 4.83336 32.861Z" fill="#4C70F5" stroke="black" stroke-width="0.284929" stroke-linecap="round" stroke-linejoin="round"/>
<path d="M6.67625 25.7184C6.67625 25.7184 7.46159 27.2676 7.9485 27.8004C8.4354 28.3328 6.5413 28.5738 6.47207 28.8662C6.40315 29.1585 7.41928 34.0487 8.49887 34.7684C9.57847 35.488 11.712 33.7946 11.9072 33.498C12.1024 33.2015 12.0976 28.3751 11.9072 28.1632C11.7168 27.9517 9.98075 25.3264 9.83266 25.3052C9.68457 25.2841 6.67625 25.7181 6.67625 25.7181V25.7184Z" fill="#2253DD"/>
<path d="M1.39648 25.4124C1.72793 25.6009 2.13053 25.6798 2.51487 25.657C3.10884 25.6221 3.66979 25.3791 4.19837 25.1066C4.72695 24.8338 5.24238 24.5258 5.80815 24.3425C6.12164 24.2405 6.44699 24.1783 6.75888 24.0722C7.07077 23.9661 7.37625 23.8097 7.58845 23.5578C7.78366 23.3257 7.88592 23.0006 7.8077 22.7115C5.68986 23.3215 2.40492 24.321 1.92635 24.7835C1.73594 24.9675 1.5574 25.1871 1.39648 25.4124Z" fill="#80A1FF"/>
<path d="M8.15388 31.3772C8.28242 31.6076 8.66451 32.0535 9.18315 32.608C7.88751 32.842 5.40745 33.2264 4.83336 32.861C4.04706 32.3606 0.521387 26.9052 0.592869 26.786C0.66435 26.6667 1.21216 25.4756 1.92698 24.7848C2.63666 24.0989 9.51844 22.2317 9.613 22.206C8.84466 22.9971 6.8717 25.6878 6.8717 25.6878L8.59463 27.1703L6.61142 28.4522C6.61142 28.4522 7.57273 30.3354 8.15388 31.3772Z" stroke="black" stroke-width="0.284929" stroke-linecap="round" stroke-linejoin="round"/>
<path d="M11.4116 12.4462C11.244 12.2706 11.1071 12.0773 11.0234 11.8664C10.5628 10.7073 12.0556 9.75431 12.8656 9.77002C13.6756 9.78605 14.0093 11.517 14.0093 11.517C14.0093 11.517 14.1997 11.0724 14.2949 10.6435C14.3904 10.2149 13.7073 7.97561 13.7073 7.97561C13.7073 7.97561 13.7551 7.76918 14.7238 7.86438C15.6925 7.95958 17.376 8.73786 18.5514 8.64266C19.7265 8.54714 19.7374 7.7025 19.7374 7.7025C19.7374 7.7025 20.2516 7.27073 20.6177 6.63541C21.0264 5.92636 21.2507 4.96409 20.3702 4.06656C19.515 3.19436 18.7197 3.36008 17.9401 3.82198C17.2327 4.24126 16.5381 4.90511 15.8229 5.25867C15.7181 5.3106 15.6056 5.35515 15.4867 5.39394C13.8978 5.91643 11.1372 5.43336 9.97973 7.28227C9.86979 7.45825 9.78003 7.63327 9.70855 7.80764C8.97322 9.60269 10.1977 11.2907 11.4116 12.4462Z" fill="#6D1249" stroke="black" stroke-width="0.284929" stroke-linecap="round" stroke-linejoin="round"/>
<path d="M12.0508 21.3789C12.0764 21.2933 12.1014 21.1978 12.1255 21.0939C12.1255 21.0933 12.1255 21.0926 12.1261 21.092" stroke="black" stroke-width="0.284929" stroke-linecap="round" stroke-linejoin="round"/>
<path d="M22.6759 31.3772C22.5474 31.6076 22.1653 32.0535 21.6466 32.608C22.9423 32.842 25.4223 33.2264 25.9964 32.861C26.7827 32.3606 30.3084 26.9052 30.2369 26.786C30.1654 26.6667 29.6176 25.4756 28.9028 24.7848C28.1931 24.0989 21.3114 22.2317 21.2168 22.206C21.9851 22.9971 23.9581 25.6878 23.9581 25.6878L22.2352 27.1703L24.2184 28.4522C24.2184 28.4522 23.2571 30.3354 22.6759 31.3772Z" fill="#4C70F5" stroke="black" stroke-width="0.284929" stroke-linecap="round" stroke-linejoin="round"/>
<path d="M22.6759 31.3772C22.5474 31.6076 22.1653 32.0535 21.6466 32.608C22.9423 32.842 25.4223 33.2264 25.9964 32.861C26.7815 32.3612 30.2985 26.9209 30.2373 26.7866C30.2373 26.7863 30.2369 26.7863 30.2369 26.786C30.1654 26.6667 29.6176 25.4756 28.9028 24.7848C28.4816 24.3777 25.8865 23.5546 23.8264 22.9475C22.4153 22.5311 21.2553 22.2166 21.2168 22.206C21.9851 22.9971 23.9581 25.6878 23.9581 25.6878L22.2352 27.1703L24.2184 28.4522C24.2184 28.4522 23.2571 30.3354 22.6759 31.3772Z" fill="#4C70F5" stroke="black" stroke-width="0.284929" stroke-linecap="round" stroke-linejoin="round"/>
<path d="M6.61133 28.451C6.61133 28.451 7.57264 30.3342 8.15379 31.376C8.28233 31.6065 8.66442 32.0524 9.18306 32.6069C11.0076 34.5587 14.5176 37.8533 14.5644 37.8065C14.5999 37.7709 13.4412 33.0352 12.4776 28.8889C12.3315 28.2594 12.1895 27.6433 12.0571 27.0596C11.5932 25.0148 11.2442 23.364 11.2188 22.9021C11.1461 21.5741 11.9724 21.1586 12.1253 21.0932C12.1324 21.0904 12.1382 21.0881 12.142 21.0865C12.1382 21.0878 12.1327 21.0894 12.126 21.0913C12.0096 21.1288 11.4782 21.3016 10.94 21.5055C10.4912 21.6757 10.0376 21.8674 9.81646 22.0206C9.76549 22.0558 9.69625 22.1193 9.61291 22.2049C8.84456 22.996 6.87161 25.6867 6.87161 25.6867L8.59454 27.1692L6.61133 28.451Z" fill="#4C70F5" stroke="black" stroke-width="0.284929" stroke-linecap="round" stroke-linejoin="round"/>
<path d="M21.2168 22.2053C21.2168 22.2053 21.2176 22.2053 21.2192 22.2061" stroke="black" stroke-width="0.284929" stroke-linecap="round" stroke-linejoin="round"/>
<path d="M13.9219 27.4973C13.9219 27.4973 14.5267 29.3376 14.8473 29.5155C15.1678 29.6937 16.1173 29.7293 16.2125 29.6462C16.3074 29.5629 17.2632 27.8711 17.2632 27.8711C17.009 27.6082 16.7516 27.3313 16.5266 27.0774C16.5266 27.0774 15.5599 27.3111 14.444 26.9178C14.287 27.0989 14.1084 27.2973 13.9219 27.4973Z" fill="#E86F3A" stroke="black" stroke-width="0.284929" stroke-linecap="round" stroke-linejoin="round"/>
<path d="M13.6955 34.0479C13.7131 34.1217 15.4364 36.8357 15.5925 36.8549C15.7486 36.8745 17.0019 34.6054 17.0019 34.6054L16.2124 29.6462C16.1172 29.7292 15.1678 29.6936 14.8472 29.5154C14.8472 29.5154 13.6782 33.9745 13.6955 34.0479Z" fill="#E86F3A" stroke="black" stroke-width="0.284929" stroke-linecap="round" stroke-linejoin="round"/>
<path d="M23.8262 22.9467C24.089 23.1425 24.3724 23.3172 24.6109 23.4945C25.1882 23.924 25.7658 24.3539 26.3431 24.7837C26.9714 25.2511 27.5993 25.7184 28.2276 26.1858C28.6561 26.5047 29.1139 26.8355 29.6457 26.8862C29.8438 26.9051 30.0521 26.8676 30.2371 26.7858C30.2371 26.7855 30.2367 26.7855 30.2367 26.7852C30.1653 26.666 29.6175 25.4748 28.9026 24.784C28.4814 24.3769 25.8863 23.5538 23.8262 22.9467Z" fill="#80A1FF"/>
<path d="M10.6094 23.8809C10.7174 25.0624 11.2374 26.2019 12.0567 27.0597C11.5928 25.0149 11.2438 23.3641 11.2185 22.9022C11.1457 21.5742 11.9721 21.1588 12.125 21.0934C12.132 21.0905 12.1378 21.0883 12.1416 21.0867C12.1378 21.088 12.1323 21.0896 12.1256 21.0915C12.0092 21.129 11.4778 21.3018 10.9396 21.5056C10.6527 22.2592 10.5357 23.0779 10.6094 23.8809Z" fill="#80A1FF"/>
<path d="M17.9395 3.82198C17.9532 3.83545 17.968 3.84763 17.9834 3.85885C18.1382 3.97328 18.3376 4.00437 18.5152 4.07938C18.9194 4.25023 19.1886 4.6397 19.371 5.03845C19.5537 5.43753 19.6736 5.86642 19.898 6.24338C20.0236 6.45398 20.2153 6.66394 20.4605 6.66394C20.5154 6.66394 20.5673 6.65368 20.617 6.63541C21.0257 5.92636 21.25 4.96409 20.3695 4.06656C19.5143 3.19436 18.719 3.36008 17.9395 3.82198Z" fill="#932A6E"/>
<path d="M9.70703 7.80804C9.74582 7.85227 9.79005 7.8917 9.83974 7.92472C10.1231 8.11255 10.5119 8.04909 10.8081 7.88176C11.1043 7.71444 11.3396 7.4596 11.6059 7.24804C12.0569 6.89 12.6048 6.65504 13.175 6.5749C13.5173 6.52682 13.8658 6.53355 14.2084 6.48675C14.5511 6.44027 14.8999 6.33257 15.1502 6.09408C15.3416 5.91169 15.4595 5.65718 15.4852 5.39433C13.8962 5.91682 11.1357 5.43376 9.97821 7.28266C9.86827 7.45864 9.77851 7.63366 9.70703 7.80804Z" fill="#932A6E"/>
<path d="M6.61133 28.4519C6.61133 28.4519 7.57264 30.3351 8.15379 31.3768C8.28233 31.6073 8.66442 32.0532 9.18306 32.6077C11.0076 34.5595 14.5176 37.8541 14.5644 37.8073C14.5999 37.7717 13.4412 33.036 12.4776 28.8897C11.8189 26.0555 11.2515 23.4966 11.2188 22.9029C11.1461 21.5749 11.9724 21.1595 12.1253 21.0941C12.1356 21.0899 12.1427 21.087 12.1465 21.0857C12.143 21.087 12.1359 21.0893 12.126 21.0922C11.9125 21.1611 10.3024 21.6848 9.81646 22.0214C9.76549 22.0567 9.69625 22.1201 9.61291 22.2057C8.84456 22.9968 6.87161 25.6875 6.87161 25.6875L8.59454 27.17L6.61133 28.4519Z" stroke="black" stroke-width="0.284929" stroke-linecap="round" stroke-linejoin="round"/>
<path d="M22.6759 31.3772C22.5474 31.6076 22.1653 32.0535 21.6466 32.608C22.9423 32.842 25.4223 33.2264 25.9964 32.861C26.7827 32.3606 30.3084 26.9052 30.2369 26.786C30.1654 26.6667 29.6176 25.4756 28.9028 24.7848C28.1931 24.0989 21.3114 22.2317 21.2168 22.206C21.9851 22.9971 23.9581 25.6878 23.9581 25.6878L22.2352 27.1703L24.2184 28.4522C24.2184 28.4522 23.2571 30.3354 22.6759 31.3772Z" stroke="black" stroke-width="0.284929" stroke-linecap="round" stroke-linejoin="round"/>
<path d="M21.111 14.5289C21.2069 15.6072 21.1985 16.6952 21.0816 17.7719C21.0453 18.1078 20.9985 18.4476 21.0069 18.7835C21.3014 18.7207 21.5822 18.6091 21.8416 18.4383C25.6246 15.9457 19.7372 7.70293 19.7372 7.70293C19.7372 7.70293 19.7314 8.14111 19.2891 8.42223C19.4205 8.61327 19.55 8.79823 19.632 8.97581C20.4398 10.7234 20.9402 12.6114 21.111 14.5289Z" fill="#F9DFDC"/>
<path d="M12.7188 15.5747C12.8162 15.4785 12.88 15.3535 12.9418 15.231C13.1015 14.9147 13.2618 14.5989 13.4211 14.2825C13.5236 14.079 13.6278 13.8585 13.4579 13.6584C13.3063 13.4799 13.0672 13.4328 12.8268 13.4674C12.814 13.7828 12.7787 14.5845 12.7188 15.5747Z" fill="#F09E8B"/>
<path d="M15.3167 16.6561C15.3167 16.6561 15.494 20.3292 18.693 20.6968L18.7632 18.554C18.7632 18.554 16.0463 17.2609 15.3164 16.6561H15.3167Z" fill="#ED7D66"/>
<path d="M13.4697 11.7818C13.4113 11.5373 13.2514 11.3456 13.0138 11.1686C12.7763 10.9917 12.3869 10.9061 12.0849 11.0206C11.9153 11.085 11.7846 11.2257 11.8291 11.3613C11.8676 11.4793 12.0192 11.5562 12.1647 11.6139C12.5971 11.7854 12.9292 11.8155 13.4206 11.8389" fill="#ED7D66"/>
<path d="M24.0103 25.7184C24.0103 25.7184 23.225 27.2676 22.7381 27.8004C22.2512 28.3328 24.1453 28.5738 24.2145 28.8662C24.2835 29.1585 23.2673 34.0487 22.1877 34.7684C21.1081 35.488 18.9746 33.7946 18.7794 33.498C18.5842 33.2015 18.589 28.3751 18.7794 28.1632C18.9698 27.9517 20.7059 25.3264 20.8539 25.3052C21.002 25.2841 24.0103 25.7181 24.0103 25.7181V25.7184Z" fill="#2253DD"/>
<path d="M16.2664 37.8073C16.3132 37.8541 19.8232 34.5595 21.6477 32.6077C22.1664 32.0532 22.5485 31.6073 22.677 31.3768C23.2581 30.3351 24.2195 28.4519 24.2195 28.4519L22.2363 27.17L23.9592 25.6875C23.9592 25.6875 21.9862 22.9968 21.2179 22.2057C21.1345 22.1201 21.0653 22.0567 21.0143 22.0214C20.9868 22.0022 20.9557 21.9826 20.9214 21.9624C20.3886 21.6496 19.0959 21.2194 18.7615 21.1107C18.7196 21.097 18.6929 21.0886 18.6843 21.0857C18.6926 21.0889 18.7183 21.0989 18.7561 21.1178C18.9882 21.2342 19.6786 21.6842 19.612 22.9029C19.5815 23.4539 19.0907 25.6971 18.4939 28.2826C18.4474 28.4833 18.4006 28.6859 18.3532 28.8897C17.3896 33.036 16.2308 37.7717 16.2664 37.8073Z" fill="#4C70F5" stroke="black" stroke-width="0.284929" stroke-linecap="round" stroke-linejoin="round"/>
<path d="M18.4941 28.2818C18.4957 28.2889 18.497 28.2963 18.4986 28.3033C19.2407 27.3144 19.8664 26.2685 20.3671 25.1812C20.6447 24.5779 20.8851 23.9583 20.9774 23.3111C21.0409 22.8681 21.0329 22.4114 20.9216 21.9616C20.3889 21.6488 19.0961 21.2186 18.7618 21.11C18.7599 21.1122 18.758 21.1144 18.7563 21.117C18.9884 21.2334 19.6789 21.6834 19.6122 22.9021C19.5817 23.4531 19.091 25.6963 18.4941 28.2818Z" fill="#80A1FF"/>
<path d="M16.2664 37.8073C16.3132 37.8541 19.8232 34.5595 21.6477 32.6077C22.1664 32.0532 22.5485 31.6073 22.677 31.3768C23.2581 30.3351 24.2195 28.4519 24.2195 28.4519L22.2363 27.17L23.9592 25.6875C23.9592 25.6875 21.9862 22.9968 21.2179 22.2057C21.1345 22.1201 21.0653 22.0567 21.0143 22.0214C20.5056 21.6691 18.7657 21.1117 18.6843 21.0857C18.7439 21.1082 19.6895 21.4864 19.612 22.9029C19.5793 23.4966 19.0119 26.0555 18.3532 28.8897C17.3896 33.036 16.2308 37.7717 16.2664 37.8073Z" stroke="black" stroke-width="0.284929" stroke-linecap="round" stroke-linejoin="round"/>
<path d="M18.7648 18.554C16.9861 17.9562 15.3789 16.6561 15.3789 16.6561" stroke="black" stroke-width="0.284929" stroke-linecap="round" stroke-linejoin="round"/>
<path d="M12.8301 13.3809C13.2368 13.5656 13.5475 13.6611 13.5475 13.6611" stroke="black" stroke-width="0.284929" stroke-linecap="round" stroke-linejoin="round"/>
<path d="M11.0239 11.8668C11.1076 12.0777 11.2444 12.271 11.4121 12.4467C11.8092 12.8621 12.3801 13.1766 12.8318 13.3814C12.8077 13.9814 12.5923 19.1002 12.1272 21.0924C12.1372 21.0895 12.1442 21.0873 12.1477 21.086H12.1481C12.1481 21.086 12.1493 21.0854 12.15 21.0854C12.1503 21.0854 12.1503 21.085 12.1503 21.085L12.1631 21.4732C12.1631 21.4732 15.0765 25.8666 15.006 26.1721C14.9842 26.266 14.7589 26.5571 14.4451 26.919C15.5609 27.3123 16.5277 27.0786 16.5277 27.0786C16.1427 26.6446 15.8513 26.2795 15.8266 26.1721C15.7561 25.8666 18.6695 21.4732 18.6695 21.4732L18.6824 21.085L18.7654 18.554C19.8328 18.9127 20.9618 19.0185 21.8423 18.4383C25.6254 15.9457 19.7379 7.70293 19.7379 7.70293C19.7379 7.70293 19.727 8.54756 18.5519 8.64308C17.3765 8.73829 15.693 7.96 14.7243 7.8648C13.7556 7.7696 13.7078 7.97603 13.7078 7.97603C13.7078 7.97603 14.3909 10.2154 14.2954 10.6439C14.2002 11.0728 14.0098 11.5174 14.0098 11.5174C14.0098 11.5174 13.6761 9.78647 12.8661 9.77044C12.0561 9.75474 10.5633 10.7077 11.0239 11.8668Z" stroke="black" stroke-width="0.284929" stroke-linecap="round" stroke-linejoin="round"/>
<path d="M15.8252 26.1103C15.8498 26.2177 16.1412 26.5828 16.5262 27.0168C16.7512 27.2707 17.0086 27.5476 17.2628 27.8105C17.6862 28.2477 18.1026 28.6452 18.3523 28.8282C18.453 28.3945 18.5517 27.9672 18.6466 27.5524C19.1723 25.2567 19.5835 23.3443 19.6111 22.8414C19.6887 21.4249 18.7431 21.0466 18.6835 21.0242C18.6835 21.0242 18.6822 21.0236 18.6815 21.0236C18.6812 21.0236 18.6812 21.0232 18.6812 21.0232L18.679 21.095L18.6684 21.4114C18.6684 21.4114 15.755 25.8048 15.8255 26.1103H15.8252Z" fill="#F5D256" stroke="black" stroke-width="0.284929" stroke-linecap="round" stroke-linejoin="round"/>
<path d="M11.2194 22.8414C11.2473 23.3456 11.6604 25.2673 12.1881 27.5713C12.2817 27.9804 12.3788 28.4012 12.4781 28.8282C12.7981 28.5936 13.3911 28.0076 13.9222 27.4367C14.1088 27.2367 14.2873 27.0383 14.4444 26.8572C14.7582 26.4953 14.9835 26.2042 15.0053 26.1103C15.0758 25.8048 12.1624 21.4114 12.1624 21.4114L12.1509 21.063L12.1496 21.0232C12.1496 21.0232 12.1496 21.0236 12.1493 21.0236C12.1486 21.0236 12.148 21.0239 12.1473 21.0242H12.147C12.1432 21.0255 12.1361 21.0284 12.1259 21.0325C11.973 21.0979 11.1466 21.5134 11.2194 22.8414Z" fill="#F5D256" stroke="black" stroke-width="0.284929" stroke-linecap="round" stroke-linejoin="round"/>
<path d="M21.5785 4.14276C21.9567 4.51427 22.0731 5.10151 21.9538 5.61823C21.8346 6.13495 21.5067 6.58467 21.1121 6.93855C20.7175 7.29244 20.2553 7.56169 19.7969 7.82839C20.2296 7.95212 20.8056 7.99539 21.223 7.82743C21.6403 7.65946 21.999 7.34917 22.2253 6.96035" stroke="black" stroke-width="0.284929" stroke-linecap="round" stroke-linejoin="round"/>
<path d="M11.4116 12.4462C11.244 12.2706 11.1071 12.0773 11.0235 11.8664C10.5628 10.7073 12.0556 9.75429 12.8656 9.76999C13.6757 9.78602 14.0093 11.517 14.0093 11.517C14.0093 11.517 14.1997 11.0724 14.2949 10.6435C14.3905 10.2149 13.7074 7.97558 13.7074 7.97558C13.7074 7.97558 13.7551 7.76915 14.7238 7.86435C15.6925 7.95956 17.376 8.73784 18.5515 8.64264C19.7266 8.54712 19.7375 7.70248 19.7375 7.70248C19.7375 7.70248 22.0396 5.76863 20.3702 4.06654C18.7387 2.40291 17.3257 4.5153 15.823 5.25864C14.3203 6.00199 11.2241 5.29487 9.97977 7.28224C8.73541 9.26994 10.0801 11.1785 11.4116 12.4462Z" stroke="black" stroke-width="0.284929" stroke-linecap="round" stroke-linejoin="round"/>
<path d="M11.2194 22.8414C11.2473 23.3456 11.6604 25.2673 12.1881 27.5713C12.2919 27.5124 12.3753 27.4149 12.4294 27.3072C12.5048 27.1569 12.531 26.9867 12.5496 26.819C12.64 25.9943 12.5615 25.1515 12.3204 24.3575C12.1441 23.7777 11.8816 23.2206 11.7887 22.6218C11.704 22.0772 11.7896 21.4666 12.1509 21.063L12.1496 21.0232C12.1496 21.0232 12.1496 21.0236 12.1493 21.0236C12.1486 21.0236 12.148 21.0239 12.1473 21.0242H12.147C12.1432 21.0255 12.1361 21.0284 12.1259 21.0325C11.973 21.0979 11.1466 21.5134 11.2194 22.8414Z" fill="#CEA625"/>
<path d="M18.647 27.5524C19.1727 25.2567 19.584 23.3443 19.6115 22.8414C19.6891 21.4249 18.7435 21.0466 18.6839 21.0242C18.6839 21.0242 18.6826 21.0236 18.682 21.0236C18.6816 21.0236 18.6816 21.0232 18.6816 21.0232L18.6794 21.095C18.9352 21.1707 19.1298 21.4133 19.2012 21.6755C19.2814 21.9711 19.2336 22.2855 19.1618 22.583C19.0208 23.1654 18.79 23.7209 18.5909 24.2861C18.3922 24.8512 18.2233 25.4359 18.2133 26.035C18.2043 26.57 18.3348 27.1222 18.6473 27.5524H18.647Z" fill="#CEA625"/>
<path d="M15.8252 26.172C15.8498 26.2794 16.1412 26.6445 16.5262 27.0785C16.7512 27.3324 17.0086 27.6093 17.2628 27.8722C17.6862 28.3094 18.1026 28.7069 18.3523 28.8899C19.0111 26.0556 19.5784 23.4967 19.6111 22.9031C19.6887 21.4866 18.7431 21.1083 18.6835 21.0859C18.6835 21.0859 18.6822 21.0853 18.6815 21.0853C18.6812 21.0853 18.6812 21.0849 18.6812 21.0849L18.6684 21.4731C18.6684 21.4731 15.755 25.8665 15.8255 26.172H15.8252Z" stroke="black" stroke-width="0.284929" stroke-linecap="round" stroke-linejoin="round"/>
<path d="M11.2194 22.9031C11.2521 23.4967 11.8194 26.0556 12.4781 28.8899C12.7981 28.6553 13.3911 28.0693 13.9222 27.4984C14.1088 27.2984 14.2873 27.1 14.4444 26.9189C14.7582 26.557 14.9835 26.2659 15.0053 26.172C15.0758 25.8665 12.1624 21.4731 12.1624 21.4731L12.1496 21.0849C12.1496 21.0849 12.1496 21.0853 12.1493 21.0853C12.1486 21.0853 12.148 21.0853 12.1473 21.0859H12.147C12.1432 21.0872 12.1361 21.0901 12.1259 21.0942C11.973 21.1596 11.1466 21.5751 11.2194 22.9031Z" stroke="black" stroke-width="0.284929" stroke-linecap="round" stroke-linejoin="round"/>
<path d="M13.4134 11.7458C13.1599 11.2547 12.6028 10.9374 12.0508 10.9701" stroke="black" stroke-width="0.284929" stroke-linecap="round" stroke-linejoin="round"/>
<path d="M12.8326 11.2732C12.6416 11.3466 12.4755 11.4838 12.3672 11.6576" stroke="black" stroke-width="0.284929" stroke-linecap="round" stroke-linejoin="round"/>
<path d="M19.3115 15.4521C19.2409 15.4464 18.6511 15.7025 17.9889 15.1098C17.3266 14.5171 17.6049 13.8494 17.6049 13.8494" stroke="black" stroke-width="0.284929" stroke-linecap="round" stroke-linejoin="round"/>
<path d="M18.039 13.8123C18.039 13.8123 17.5836 13.6267 17.1992 14.113" stroke="black" stroke-width="0.284929" stroke-linecap="round" stroke-linejoin="round"/>
<path d="M19.7848 12.1631C19.7848 12.1631 20.7262 13.6007 20.4573 13.8501C20.1883 14.0995 19.5293 13.6616 19.5293 13.6616" stroke="black" stroke-width="0.284929" stroke-linecap="round" stroke-linejoin="round"/>
</g>
<defs>
<clipPath id="clip0_17961_119617">
<rect y="-0.000396729" width="32" height="32" rx="16" fill="white"/>
</clipPath>
</defs>
</svg>
