<svg width="37" height="36" viewBox="0 0 37 36" fill="none" xmlns="http://www.w3.org/2000/svg">
<g clip-path="url(#clip0_7174_23248)">
<path d="M26.7358 16.844H1.37109V32.9852H26.7358V16.844Z" fill="#B1D952"/>
<path d="M20.9724 5.31577H26.7371C31.8313 5.31577 35.9606 9.44505 35.9606 14.5393V21.457C35.9606 22.7304 34.9281 23.7629 33.6547 23.7629C32.3776 23.7858 31.2945 22.6448 31.3489 21.4003C31.3482 19.4991 31.35 16.7883 31.3482 14.463C31.3432 11.9346 29.1333 9.88474 26.7353 9.92759C26.6224 9.92759 20.9723 9.92759 20.9723 9.92759V12.2335L14.0547 7.62175L20.9723 3.01001V5.31577H20.9724Z" fill="#FD6050"/>
<path d="M7.13582 16.844H1.37109V22.6087C4.55498 22.6087 7.13582 20.0273 7.13582 16.844Z" fill="#91B706"/>
<path d="M22.6606 20.9203C23.7417 22.0014 25.2082 22.609 26.7374 22.6087V16.844H20.9727C20.9724 18.3726 21.5794 19.8391 22.6606 20.9203Z" fill="#91B706"/>
<path d="M1.37109 27.2209V32.9857H7.13582C7.13582 29.8018 4.55498 27.2209 1.37109 27.2209Z" fill="#91B706"/>
<path d="M22.6567 28.9089C21.5755 29.99 20.9685 31.4565 20.9688 32.9857H26.7335V27.2209C25.2043 27.2207 23.7379 27.8277 22.6567 28.9089Z" fill="#91B706"/>
<path d="M26.7346 16.1409H1.36994C0.980086 16.1409 0.664062 16.4569 0.664062 16.8468V32.988C0.664062 33.3778 0.980086 33.6938 1.36994 33.6938H26.7346C27.1244 33.6938 27.4405 33.3778 27.4405 32.988V16.8468C27.4405 16.4569 27.1244 16.1409 26.7346 16.1409ZM26.0287 32.2821H2.07583V17.5526H26.0287V32.2821Z" fill="#052A75"/>
<path d="M26.7358 4.61149H21.6771V3.01146C21.6835 2.45671 21.0392 2.10941 20.5796 2.42417L13.662 7.03591C13.4656 7.16678 13.3477 7.38723 13.3477 7.6232C13.3477 7.85925 13.4656 8.07963 13.662 8.2105L20.5797 12.8222C21.0379 13.1354 21.6838 12.792 21.6771 12.2349V10.6349H26.7359C28.8897 10.6349 30.6418 12.3871 30.6418 14.5408V21.4584C30.614 23.0743 32.0344 24.5059 33.6536 24.4701C35.3142 24.4701 36.6653 23.1191 36.6653 21.4584V14.5408C36.6653 9.06582 32.211 4.61149 26.7358 4.61149ZM35.2535 21.4586C35.1651 23.5847 32.1402 23.5766 32.0535 21.4586V14.5409C32.0535 11.6088 29.668 9.2233 26.7358 9.2233H20.9712C20.5813 9.2233 20.2653 9.53932 20.2653 9.92918V10.9161L15.326 7.62334L20.2653 4.33054V5.31751C20.2653 5.70737 20.5813 6.02339 20.9712 6.02339H26.7358C31.4325 6.02325 35.2535 9.84426 35.2535 14.5409V21.4586Z" fill="#052A75"/>
<path d="M16.4855 26.649C16.4855 25.3062 15.393 24.2137 14.0502 24.2137C12.6926 24.1575 12.6925 22.2229 14.0502 22.1667H15.2032C16.139 22.1298 16.1397 20.792 15.2032 20.7549H14.7561V20.3079C14.7189 19.3714 13.3813 19.3719 13.3444 20.3079V20.8596C10.6994 21.7193 11.2398 25.5584 14.0502 25.6255C15.4077 25.6815 15.4081 27.6164 14.0502 27.6726H12.8973C11.962 27.7071 11.9622 29.0499 12.8973 29.0843H13.3444V29.5314C13.3816 30.4678 14.7191 30.4674 14.7561 29.5314V28.9797C15.7558 28.6762 16.4855 27.7464 16.4855 26.649Z" fill="white"/>
</g>
<defs>
<clipPath id="clip0_7174_23248">
<rect width="36" height="36" fill="white" transform="translate(0.664062 0.000244141)"/>
</clipPath>
</defs>
</svg>
