
<svg width="36" height="36" viewBox="0 0 36 36" fill="none" xmlns="http://www.w3.org/2000/svg">
<g clipPath="url(#clip0_7174_22942)">
<path d="M35.2969 1.30493H0.703125V26.7208H35.2969V1.30493Z" fill="#BC9AF4"/>
<path fill-rule="evenodd" clip-rule="evenodd" d="M27.1272 26.7212H8.87171C8.85266 26.5305 8.84591 26.3376 8.85224 26.1433L8.85146 25.9976L8.69382 25.7212C7.91694 24.3591 7.92742 22.6881 8.71098 21.3372L8.85146 21.0907L8.85308 20.7789C8.86138 19.2243 9.68727 17.7871 11.03 17.0023L11.3008 16.844L11.4591 16.5733C12.2753 15.1768 13.7961 14.3433 15.4018 14.3954L15.5475 14.3946L15.8239 14.237C17.1862 13.4602 18.8571 13.4706 20.208 14.2542L20.4544 14.3946L20.7663 14.3963C22.3226 14.4046 23.759 15.2321 24.5428 16.5732L24.7011 16.844L24.9718 17.0022C26.3683 17.8184 27.2018 19.3392 27.1497 20.945L27.1504 21.0907L27.3081 21.3672C28.085 22.7294 28.0744 24.4004 27.2909 25.7512L27.1504 25.9976L27.1488 26.3095C27.148 26.4478 27.1407 26.5851 27.1272 26.7212Z" fill="#6864F7"/>
<path fill-rule="evenodd" clip-rule="evenodd" d="M3.87891 7.6596V20.3676C5.63348 20.3676 7.05584 21.7899 7.05584 23.5445H8.11516L17.9989 20.1912L27.8825 23.5446H28.9418C28.9418 21.79 30.3641 20.3677 32.1187 20.3677V7.6596C30.3641 7.6596 28.9418 6.23724 28.9418 4.48267H7.05591C7.05591 6.23724 5.63348 7.6596 3.87891 7.6596Z" fill="white"/>
<path fill-rule="evenodd" clip-rule="evenodd" d="M8.11719 23.5441H27.8844C27.8846 22.7937 27.6931 22.0425 27.3079 21.3672L27.1503 21.0907L27.1495 20.945C27.2017 19.3393 26.3681 17.8184 24.9717 17.0022L24.701 16.844L24.5427 16.5732C23.7588 15.2321 22.3224 14.4046 20.7661 14.3963L20.4542 14.3946L20.2078 14.2542C18.857 13.4706 17.186 13.4602 15.8238 14.237L15.5474 14.3946L15.4017 14.3954C13.796 14.3433 12.275 15.1768 11.4589 16.5733L11.3007 16.844L11.0299 17.0023C9.68705 17.7871 8.86123 19.2243 8.85294 20.7789L8.85132 21.0907L8.71084 21.3372C8.31575 22.0182 8.11733 22.7808 8.11719 23.5441Z" fill="#D2DCFD"/>
<path fill-rule="evenodd" clip-rule="evenodd" d="M12.8759 27.0764L10.0195 32.0237L13.1231 31.9941L14.6491 34.6967L17.5065 29.7475C15.6208 28.6721 14.7549 28.1746 12.8759 27.0764Z" fill="#67CCD1"/>
<path fill-rule="evenodd" clip-rule="evenodd" d="M23.1267 27.0764L25.983 32.0237L22.8796 31.9941L21.3535 34.6967L18.4961 29.7475C20.3819 28.6721 21.2478 28.1746 23.1267 27.0764Z" fill="#67CCD1"/>
<path fill-rule="evenodd" clip-rule="evenodd" d="M18.4414 17.3112L19.5074 17.9192L20.7451 17.9258C21.0632 17.927 21.3431 18.098 21.4929 18.354L22.1183 19.424L23.1882 20.0494C23.4866 20.2235 23.6428 20.5479 23.6169 20.8707L23.623 22.0348L24.2393 23.1154C24.3985 23.3959 24.3844 23.7275 24.231 23.9865L23.6231 25.0525L23.6165 26.2901C23.6152 26.6081 23.4443 26.8881 23.1882 27.0379L22.1182 27.6632L21.4929 28.7332C21.3187 29.0316 20.9943 29.1878 20.6715 29.1619L19.5074 29.168L18.4268 29.7843C18.1463 29.9435 17.8146 29.9293 17.5557 29.776L16.4896 29.1681L15.2521 29.1615C14.934 29.1602 14.654 28.9892 14.5043 28.7332L13.8789 27.6632L12.8089 27.0379C12.5106 26.8637 12.3543 26.5393 12.3802 26.2165L12.374 25.0524L11.7577 23.9718C11.5985 23.6913 11.6127 23.3597 11.766 23.1007L12.374 22.0346L12.3805 20.7971C12.3817 20.4899 12.5432 20.2046 12.8088 20.0493L13.8788 19.4239L14.5041 18.3538C14.6783 18.0555 15.0027 17.8993 15.3255 17.9252L16.4896 17.919L17.5702 17.3028C17.8508 17.1437 18.1824 17.1579 18.4414 17.3112Z" fill="#FD8F01"/>
<path d="M35.2969 0.601807H0.703125C0.314789 0.601807 0 0.916596 0 1.30493V26.7207C0 27.1091 0.314789 27.4238 0.703125 27.4238H11.8616L9.40936 31.6713C9.28315 31.8899 9.28378 32.1593 9.41105 32.3774C9.53712 32.5934 9.76845 32.726 10.0183 32.726C10.0205 32.726 10.0228 32.726 10.025 32.726L12.7136 32.7003L14.0356 35.0415C14.1597 35.2613 14.3921 35.3977 14.6445 35.3989H14.6479C14.8989 35.3989 15.1311 35.265 15.2568 35.0473L17.8297 30.5908C17.8862 30.5969 17.943 30.6 17.9998 30.6C18.0567 30.6 18.1137 30.5969 18.1704 30.5907L20.7434 35.0473C20.869 35.265 21.1011 35.3989 21.3523 35.3989H21.3557C21.608 35.3977 21.8405 35.2613 21.9646 35.0415L23.2867 32.7003L25.9752 32.726C26.2259 32.7299 26.4619 32.5953 26.5892 32.3774C26.7164 32.1593 26.7171 31.8899 26.5909 31.6713L24.1386 27.4238H35.2969C35.6852 27.4238 36 27.1091 36 26.7207V1.30493C36 0.916596 35.6851 0.601807 35.2969 0.601807ZM22.9214 22.0386C22.922 22.1595 22.9538 22.2782 23.0137 22.3831L23.6292 23.4625C23.673 23.5396 23.6389 23.6089 23.6275 23.6283C23.6255 23.6316 23.6235 23.635 23.6216 23.6384L23.0137 24.7044C22.9538 24.8093 22.922 24.928 22.9214 25.0489L22.9148 26.2875C22.9145 26.359 22.8732 26.4085 22.8348 26.431L21.7648 27.0564C21.6605 27.1174 21.5736 27.2043 21.5125 27.3086L20.887 28.379C20.848 28.4458 20.7802 28.4654 20.7291 28.4612C20.7091 28.4596 20.6892 28.459 20.6691 28.4589L19.5051 28.4651C19.3842 28.4657 19.2656 28.4975 19.1605 28.5574L18.0811 29.1729C18.004 29.2168 17.9347 29.1826 17.9153 29.1712C17.912 29.1692 17.9087 29.1672 17.9054 29.1653L16.8393 28.5574C16.7342 28.4975 16.6155 28.4657 16.4947 28.4651L15.2562 28.4586C15.1847 28.4583 15.135 28.4169 15.1126 28.3786L14.4872 27.3086C14.4262 27.2043 14.3393 27.1174 14.235 27.0564L13.1646 26.4308C13.0978 26.3918 13.0783 26.3237 13.0824 26.2729C13.084 26.2529 13.0848 26.233 13.0847 26.2129L13.0785 25.0489C13.0778 24.928 13.0461 24.8093 12.9862 24.7043L12.3706 23.625C12.3268 23.5479 12.3609 23.4785 12.3725 23.4592C12.3744 23.4559 12.3763 23.4526 12.3783 23.4492L12.9862 22.3831C13.0461 22.2782 13.0779 22.1595 13.0785 22.0386L13.0852 20.8001C13.0854 20.7403 13.1161 20.6852 13.1651 20.6566L14.2351 20.0311C14.3395 19.9702 14.4264 19.8833 14.4874 19.7789L15.1129 18.7085C15.1487 18.6472 15.2089 18.6259 15.2579 18.6259C15.2623 18.6259 15.2667 18.626 15.2709 18.6263C15.2908 18.628 15.3106 18.6288 15.3309 18.6286L16.4949 18.6224C16.6158 18.6218 16.7344 18.59 16.8394 18.5301L17.9189 17.9146C17.996 17.8707 18.0653 17.9049 18.0847 17.9164C18.088 17.9184 18.0913 17.9203 18.0946 17.9222L19.1606 18.5301C19.2656 18.59 19.3843 18.6218 19.5052 18.6224L20.7438 18.629C20.8152 18.6293 20.8648 18.6706 20.8873 18.709L21.5127 19.779C21.5737 19.8833 21.6606 19.9702 21.765 20.0312L22.8353 20.6568C22.9022 20.6958 22.9217 20.7639 22.9176 20.8147C22.916 20.8346 22.9152 20.8546 22.9153 20.8747L22.9214 22.0386ZM14.6545 33.2778L13.7339 31.6475C13.6092 31.4265 13.3751 31.2901 13.1217 31.2901C13.1195 31.2901 13.1172 31.2901 13.115 31.2901L11.2428 31.308L13.13 28.0392L13.3663 28.1773L13.8988 29.0884C14.1777 29.5651 14.6957 29.8625 15.2497 29.8647L16.3029 29.8703L16.5428 30.0071L14.6545 33.2778ZM22.885 31.2901C22.6289 31.2856 22.3919 31.4246 22.2661 31.6475L21.3455 33.2779L19.4572 30.0072L19.6971 29.8704L20.6511 29.8653C21.238 29.8993 21.8044 29.5969 22.1013 29.0882L22.6336 28.1774L22.8699 28.0392L24.7571 31.308L22.885 31.2901ZM34.5938 26.0176H24.3225L24.3266 25.2409L24.8408 24.3394C25.124 23.8566 25.1286 23.2554 24.8515 22.7673L24.3266 21.8468L24.3216 20.8927C24.3555 20.3058 24.0531 19.7395 23.5445 19.4425L22.6337 18.9102L22.1012 17.9992C21.8223 17.5224 21.3043 17.2249 20.7503 17.2228L19.6971 17.2171L18.7955 16.703C18.3127 16.4199 17.7114 16.4153 17.2235 16.6923L16.303 17.2171L15.3489 17.2222C14.7618 17.1887 14.1956 17.4907 13.8987 17.9993L13.3665 18.9101L12.4555 19.4425C11.9788 19.7213 11.6812 20.2394 11.6791 20.7935L11.6735 21.8467L11.1593 22.7484C10.8762 23.2312 10.8716 23.8324 11.1486 24.3204L11.6735 25.2408L11.6776 26.0176H1.40625V2.00806H34.5938V26.0176Z" fill="#052A75"/>
<path d="M26.4712 9.95142H9.52734C9.13901 9.95142 8.82422 9.63663 8.82422 9.24829C8.82422 8.85996 9.13901 8.54517 9.52734 8.54517H26.4712C26.8596 8.54517 27.1744 8.85996 27.1744 9.24829C27.1744 9.63663 26.8596 9.95142 26.4712 9.95142Z" fill="#6864F7"/>
<path d="M23.4621 13.1292H12.5352C12.1468 13.1292 11.832 12.8144 11.832 12.426C11.832 12.0377 12.1468 11.7229 12.5352 11.7229H23.4621C23.8505 11.7229 24.1653 12.0377 24.1653 12.426C24.1653 12.8144 23.8505 13.1292 23.4621 13.1292Z" fill="#6864F7"/>
<path d="M17.2948 25.6582C17.1083 25.6582 16.9295 25.5841 16.7976 25.4523L15.3856 24.0403C15.111 23.7657 15.111 23.3205 15.3856 23.0459C15.6602 22.7714 16.1053 22.7714 16.38 23.0459L17.2947 23.9608L19.6215 21.6339C19.8961 21.3593 20.3413 21.3593 20.616 21.6339C20.8905 21.9085 20.8905 22.3537 20.616 22.6283L17.7919 25.4524C17.6602 25.5842 17.4813 25.6582 17.2948 25.6582Z" fill="white"/>
</g>
<defs>
<clipPath id="clip0_7174_22942">
<rect width="36" height="36" fill="white" transform="translate(0 0.000244141)"/>
</clipPath>
</defs>
</svg>
