<svg width="24" height="24" viewBox="0 0 24 24" fill="none" xmlns="http://www.w3.org/2000/svg">
<g clip-path="url(#clip0_7207_22724)">
<path d="M12 24C18.6274 24 24 18.6274 24 12C24 5.37258 18.6274 0 12 0C5.37258 0 0 5.37258 0 12C0 18.6274 5.37258 24 12 24Z" fill="#D80027"/>
<path d="M6.56719 7.30273L7.60312 10.4902H10.9547L8.24531 12.4637L9.28125 15.6512L6.56719 13.6824L3.85313 15.6512L4.89375 12.4637L2.17969 10.4902H5.53125L6.56719 7.30273Z" fill="#FFDA44"/>
<path d="M14.225 18.5857L13.4328 17.6107L12.2609 18.0654L12.9406 17.0107L12.1484 16.0311L13.3625 16.3545L14.0469 15.2998L14.1125 16.5561L15.3313 16.8795L14.1547 17.3295L14.225 18.5857Z" fill="#FFDA44"/>
<path d="M15.8 15.7264L16.175 14.5264L15.1484 13.7998L16.4047 13.7811L16.775 12.5811L17.1828 13.7717L18.4391 13.7576L17.4312 14.5076L17.8344 15.6982L16.8078 14.9717L15.8 15.7264Z" fill="#FFDA44"/>
<path d="M17.9266 8.80771L17.3734 9.9374L18.2734 10.814L17.0312 10.6358L16.4781 11.7608L16.2625 10.5233L15.0156 10.3452L16.1313 9.75928L15.9156 8.51709L16.8156 9.39365L17.9266 8.80771Z" fill="#FFDA44"/>
<path d="M14.2602 5.38574L14.1664 6.63731L15.3336 7.11074L14.1102 7.41074L14.0211 8.66699L13.3602 7.59824L12.1367 7.89824L12.9477 6.9373L12.282 5.87324L13.4492 6.34668L14.2602 5.38574Z" fill="#FFDA44"/>
</g>
<defs>
<clipPath id="clip0_7207_22724">
<rect width="24" height="24" fill="white"/>
</clipPath>
</defs>
</svg>
