<svg width="24" height="25" viewBox="0 0 24 25" fill="none" xmlns="http://www.w3.org/2000/svg">
<path d="M22.7366 23.9709V2.78345C22.7366 2.00678 22.107 1.3772 21.3303 1.3772H1.90234C1.12567 1.3772 0.496094 2.00678 0.496094 2.78345V23.9709C0.496094 24.2298 0.705953 24.4397 0.964844 24.4397H22.2678C22.5267 24.4397 22.7366 24.2298 22.7366 23.9709Z" fill="white"/>
<path d="M10.7163 12.9084C10.7163 8.18757 12.9918 3.99831 16.5058 1.3772H1.90234C1.12572 1.3772 0.496094 2.00678 0.496094 2.78345V23.9709C0.496094 24.2298 0.705953 24.4397 0.964844 24.4397H16.5058C12.9919 21.8186 10.7163 17.6293 10.7163 12.9084Z" fill="#D2DCFD"/>
<path d="M7.39744 8.14976H3.77344C3.51455 8.14976 3.30469 7.9399 3.30469 7.68101V4.15259C3.30469 3.8937 3.51455 3.68384 3.77344 3.68384H7.39744C7.65633 3.68384 7.86619 3.8937 7.86619 4.15259V7.68101C7.86619 7.9399 7.65633 8.14976 7.39744 8.14976Z" fill="#91B706"/>
<path d="M7.39744 15.1573H3.77344C3.51455 15.1573 3.30469 14.9475 3.30469 14.6886V11.1602C3.30469 10.9013 3.51455 10.6914 3.77344 10.6914H7.39744C7.65633 10.6914 7.86619 10.9013 7.86619 11.1602V14.6886C7.86619 14.9475 7.65633 15.1573 7.39744 15.1573Z" fill="#FD8F01"/>
<path d="M7.39744 22.1634H3.77344C3.51455 22.1634 3.30469 21.9536 3.30469 21.6947V18.1663C3.30469 17.9074 3.51455 17.6975 3.77344 17.6975H7.39744C7.65633 17.6975 7.86619 17.9074 7.86619 18.1663V21.6947C7.86619 21.9536 7.65633 22.1634 7.39744 22.1634Z" fill="#27A2CC"/>
<path d="M21.3303 0.9104H1.90234C0.868469 0.9104 0.0273438 1.75153 0.0273438 2.7854V23.9729C0.0273438 24.4898 0.447906 24.9104 0.964844 24.9104H22.2678C22.7848 24.9104 23.2053 24.4898 23.2053 23.9729V2.7854C23.2053 1.75153 22.3642 0.9104 21.3303 0.9104ZM22.2678 23.9729H0.964844V2.7854C0.964844 2.26846 1.38541 1.8479 1.90234 1.8479H21.3303C21.8473 1.8479 22.2678 2.26846 22.2678 2.7854V23.9729Z" fill="#052A75"/>
<path d="M8.34732 3.03791L5.67975 5.70552L5.56196 5.58772C5.37886 5.40467 5.08205 5.40467 4.899 5.58772C4.71596 5.77077 4.71596 6.06758 4.899 6.25063L5.34825 6.69983C5.4398 6.79138 5.55975 6.83713 5.67971 6.83713C5.79966 6.83713 5.91961 6.79133 6.01116 6.69983L9.01018 3.70081C9.19322 3.51777 9.19322 3.22096 9.01018 3.03786C8.82718 2.85486 8.53046 2.85491 8.34732 3.03791Z" fill="#052A75"/>
<path d="M10.7891 4.94165H17.5496C17.8084 4.94165 18.0183 4.73179 18.0183 4.4729C18.0183 4.21401 17.8084 4.00415 17.5496 4.00415H10.7891C10.5302 4.00415 10.3203 4.21401 10.3203 4.4729C10.3203 4.73179 10.5302 4.94165 10.7891 4.94165Z" fill="#052A75"/>
<path d="M19.9287 6.17017H10.7852C10.5263 6.17017 10.3164 6.38003 10.3164 6.63892C10.3164 6.89781 10.5263 7.10767 10.7852 7.10767H19.9287C20.1876 7.10767 20.3975 6.89781 20.3975 6.63892C20.3975 6.38003 20.1876 6.17017 19.9287 6.17017Z" fill="#052A75"/>
<path d="M8.34732 10.0418L5.67975 12.7094L5.56196 12.5916C5.37886 12.4086 5.08214 12.4086 4.899 12.5916C4.71596 12.7747 4.71596 13.0715 4.899 13.2546L5.34825 13.7038C5.43619 13.7917 5.55539 13.8411 5.67971 13.8411C5.80402 13.8411 5.92322 13.7917 6.01116 13.7038L9.01018 10.7048C9.19322 10.5218 9.19322 10.2249 9.01018 10.0418C8.82718 9.85876 8.53046 9.8588 8.34732 10.0418Z" fill="#052A75"/>
<path d="M10.7891 11.9456H17.5496C17.8084 11.9456 18.0183 11.7357 18.0183 11.4768C18.0183 11.2179 17.8084 11.0081 17.5496 11.0081H10.7891C10.5302 11.0081 10.3203 11.2179 10.3203 11.4768C10.3203 11.7357 10.5302 11.9456 10.7891 11.9456Z" fill="#052A75"/>
<path d="M19.9326 13.176H10.7891C10.5302 13.176 10.3203 13.3859 10.3203 13.6448C10.3203 13.9037 10.5302 14.1135 10.7891 14.1135H19.9326C20.1915 14.1135 20.4014 13.9037 20.4014 13.6448C20.4014 13.3859 20.1915 13.176 19.9326 13.176Z" fill="#052A75"/>
<path d="M8.34732 17.0516L5.67975 19.7192L5.56196 19.6014C5.37886 19.4184 5.08214 19.4184 4.899 19.6014C4.71596 19.7845 4.71596 20.0813 4.899 20.2644L5.34825 20.7136C5.43619 20.8015 5.55539 20.8509 5.67971 20.8509C5.80402 20.8509 5.92322 20.8015 6.01116 20.7136L9.01018 17.7146C9.19322 17.5316 9.19322 17.2347 9.01018 17.0517C8.82718 16.8685 8.53046 16.8686 8.34732 17.0516Z" fill="#052A75"/>
<path d="M10.7852 18.9514H17.5457C17.8045 18.9514 18.0144 18.7416 18.0144 18.4827C18.0144 18.2238 17.8045 18.0139 17.5457 18.0139H10.7852C10.5263 18.0139 10.3164 18.2238 10.3164 18.4827C10.3164 18.7416 10.5263 18.9514 10.7852 18.9514Z" fill="#052A75"/>
<path d="M19.9326 20.1799H10.7891C10.5302 20.1799 10.3203 20.3898 10.3203 20.6487C10.3203 20.9076 10.5302 21.1174 10.7891 21.1174H19.9326C20.1915 21.1174 20.4014 20.9076 20.4014 20.6487C20.4014 20.3898 20.1915 20.1799 19.9326 20.1799Z" fill="#052A75"/>
</svg>
