
<svg width="36" height="36" viewBox="0 0 36 36" fill="none" xmlns="http://www.w3.org/2000/svg">
<g clipPath="url(#clip0_7174_23024)">
<path d="M28.2354 0.705322H0.707031V35.2923H28.2354V0.705322Z" fill="white"/>
<path d="M6.79984 7.20336C6.79984 4.95161 7.10999 2.77242 7.68837 0.705322H0.707031V35.2923H28.2354V30.7809C15.7814 29.1256 6.79984 19.338 6.79984 7.20336Z" fill="#D2DCFD"/>
<path d="M14.1186 4.65845H4.66016V14.1169H14.1186V4.65845Z" fill="#FDCB50"/>
<path d="M14.1186 4.65845H4.66016V14.1169H14.1186V4.65845Z" fill="#FDCB50"/>
<path d="M6.80017 7.20369C6.80017 6.34389 6.8457 5.49482 6.93386 4.65845H4.66016V14.1169H7.82303C7.15635 11.9354 6.80017 9.61617 6.80017 7.20369Z" fill="#FD8F01"/>
<path d="M11.0126 4.65845H7.76562V7.90539H11.0126V4.65845Z" fill="white"/>
<path d="M34.8828 15.0256C35.7359 13.5481 35.218 11.6552 33.7238 10.8201C32.2505 9.99658 30.3687 10.5343 29.5507 12.0107C29.3715 12.3342 29.257 12.6764 29.2032 13.0225C28.8653 15.1957 28.1699 17.298 27.0703 19.2026L26.9844 19.3514L29.7808 20.966L29.8547 20.838C30.9476 18.9451 32.3717 17.2541 34.1025 15.9193C34.4098 15.6823 34.6768 15.3825 34.8828 15.0256Z" fill="#D46B5C"/>
<path d="M32.5206 20.1765L26.2987 16.5843C25.3513 16.0373 24.14 16.362 23.593 17.3093L22.6328 18.9723L32.2854 24.5452L33.2456 22.8822C33.7925 21.9348 33.4679 20.7234 32.5206 20.1765Z" fill="#FDCB50"/>
<path d="M14.6875 24.7288C15.3694 22.8164 17.1963 21.4475 19.3428 21.4475C22.0717 21.4475 24.2838 23.6597 24.2838 26.3885C24.2838 27.6069 23.8429 28.7223 23.1117 29.5837L20.6356 29.8041L15.6538 27.1543L14.6875 24.7288Z" fill="#FD7DA0"/>
<path d="M14.6888 24.7288C14.5038 25.2475 14.4023 25.8059 14.4023 26.3882C14.4023 29.117 16.6145 31.3291 19.3433 31.3291C20.8538 31.3291 22.2051 30.6506 23.1114 29.5826C19.9276 28.4971 17.0795 26.8367 14.6888 24.7288Z" fill="#DB4B86"/>
<path d="M35.8628 12.4941C35.5929 11.5141 34.9553 10.7011 34.0672 10.2048C33.1901 9.71459 32.1713 9.59734 31.1985 9.87453C30.2296 10.1506 29.4283 10.7832 28.94 11.6563V0.7061C28.94 0.316256 28.6239 0.000244141 28.2342 0.000244141H0.705856C0.316082 0.000244141 0 0.316256 0 0.7061V35.293C0 35.6829 0.316082 35.9989 0.705856 35.9989H28.2342C28.624 35.9989 28.9401 35.6829 28.9401 35.293V23.4313L31.9308 25.158C32.039 25.2205 32.1609 25.2526 32.2837 25.2526C32.3449 25.2526 32.4063 25.2446 32.4664 25.2285C32.6473 25.18 32.8014 25.0618 32.895 24.8997L33.8552 23.2366C34.5958 21.9537 34.1547 20.3074 32.8719 19.5666L31.9423 19.03C32.719 18.0638 33.5877 17.2077 34.5327 16.4789C34.9223 16.1785 35.2454 15.8085 35.4932 15.3794C36.0015 14.499 36.1328 13.4743 35.8628 12.4941ZM27.5284 34.5872H1.41171V1.41196H27.5284V16.4816L26.65 15.9745C26.0286 15.6157 25.3045 15.5203 24.6114 15.7061C23.9183 15.8918 23.3389 16.3364 22.9801 16.9579L22.02 18.6209C21.9264 18.783 21.9009 18.9756 21.9494 19.1565C21.9979 19.3373 22.1162 19.4915 22.2783 19.5851L27.5284 22.6162V34.5872ZM32.6326 22.5307L32.0253 23.5825L23.5954 18.7154L24.2026 17.6637C24.3729 17.3687 24.6479 17.1578 24.9767 17.0696C25.3059 16.9814 25.6492 17.0268 25.9441 17.1969L32.1659 20.7891C32.7747 21.1407 32.9841 21.922 32.6326 22.5307ZM34.2707 14.6735C34.1155 14.9424 33.9135 15.1737 33.6705 15.3612C32.5816 16.2009 31.5868 17.1932 30.7062 18.3164L28.8046 17.2185C29.3099 15.9321 29.6777 14.5602 29.8998 13.1318C29.9423 12.8592 30.0322 12.5974 30.1672 12.3537C30.4715 11.8044 30.9751 11.4062 31.5854 11.2322C32.1947 11.0586 32.8315 11.1314 33.3785 11.4371C33.9341 11.7476 34.333 12.2562 34.5018 12.869C34.6707 13.482 34.5886 14.1229 34.2707 14.6735Z" fill="#052A75"/>
<path d="M14.1175 3.95337H4.65898C4.26921 3.95337 3.95312 4.26938 3.95312 4.65923V14.1177C3.95312 14.5075 4.26921 14.8236 4.65898 14.8236H14.1175C14.5072 14.8236 14.8233 14.5075 14.8233 14.1177V4.65923C14.8233 4.26945 14.5072 3.95337 14.1175 3.95337ZM13.4116 13.4118H5.36484V5.36508H13.4116V13.4118Z" fill="#052A75"/>
<path d="M22.6221 14.8238H17.5066C17.1169 14.8238 16.8008 14.5078 16.8008 14.118C16.8008 13.7281 17.1169 13.4121 17.5066 13.4121H22.6221C23.0119 13.4121 23.328 13.7281 23.328 14.118C23.328 14.5078 23.0119 14.8238 22.6221 14.8238Z" fill="#6864F7"/>
<path d="M24.2829 7.48202H17.5066C17.1169 7.48202 16.8008 7.16601 16.8008 6.77617C16.8008 6.38632 17.1169 6.07031 17.5066 6.07031H24.2829C24.6726 6.07031 24.9887 6.38632 24.9887 6.77617C24.9887 7.16601 24.6726 7.48202 24.2829 7.48202Z" fill="#6864F7"/>
<path d="M24.2829 11.1519H17.5066C17.1169 11.1519 16.8008 10.8359 16.8008 10.4461C16.8008 10.0562 17.1169 9.74023 17.5066 9.74023H24.2829C24.6726 9.74023 24.9887 10.0562 24.9887 10.4461C24.9887 10.8359 24.6726 11.1519 24.2829 11.1519Z" fill="#6864F7"/>
<path d="M19.7718 18.4937H4.65898C4.26921 18.4937 3.95312 18.1777 3.95312 17.7879C3.95312 17.398 4.26921 17.082 4.65898 17.082H19.7718C20.1616 17.082 20.4776 17.398 20.4776 17.7879C20.4776 18.1777 20.1616 18.4937 19.7718 18.4937Z" fill="#6864F7"/>
<path d="M12.4984 22.1639H4.65898C4.26921 22.1639 3.95312 21.8479 3.95312 21.4581C3.95312 21.0682 4.26921 20.7522 4.65898 20.7522H12.4984C12.8882 20.7522 13.2043 21.0682 13.2043 21.4581C13.2043 21.8479 12.8883 22.1639 12.4984 22.1639Z" fill="#6864F7"/>
<path d="M10.8705 25.8336H4.65898C4.26921 25.8336 3.95312 25.5176 3.95312 25.1277C3.95312 24.7379 4.26921 24.4219 4.65898 24.4219H10.8705C11.2603 24.4219 11.5764 24.7379 11.5764 25.1277C11.5764 25.5176 11.2603 25.8336 10.8705 25.8336Z" fill="#6864F7"/>
<path d="M18.7944 28.1459C18.6137 28.1459 18.4332 28.077 18.2953 27.9392L17.2888 26.9327C17.0131 26.6571 17.0131 26.2101 17.2888 25.9345C17.5645 25.6588 18.0113 25.6588 18.2871 25.9345L18.7944 26.4418L20.3945 24.8417C20.6702 24.5661 21.117 24.5661 21.3928 24.8417C21.6685 25.1174 21.6685 25.5643 21.3928 25.84L19.2936 27.9392C19.1557 28.077 18.975 28.1459 18.7944 28.1459Z" fill="white"/>
<path d="M12.8655 32.0471H10.8536C10.4639 32.0471 10.1478 31.7311 10.1478 31.3413C10.1478 30.9637 9.8406 30.6565 9.46304 30.6565C9.08547 30.6565 8.77822 30.9637 8.77822 31.3413C8.77822 31.7311 8.46213 32.0471 8.07236 32.0471C7.68259 32.0471 7.3665 31.7311 7.3665 31.3413C7.3665 30.7286 6.91758 30.2303 6.36567 30.2303C5.81376 30.2303 5.36484 30.7287 5.36484 31.3413C5.36484 31.7311 5.04875 32.0471 4.65898 32.0471C4.26921 32.0471 3.95312 31.7311 3.95312 31.3413C3.95312 29.9502 5.03534 28.8186 6.36567 28.8186C7.08924 28.8186 7.73948 29.1535 8.18198 29.6827C8.53646 29.4083 8.98101 29.2448 9.46297 29.2448C10.3715 29.2448 11.1468 29.8256 11.4372 30.6354H12.8654C13.2552 30.6354 13.5713 30.9514 13.5713 31.3413C13.5713 31.7311 13.2552 32.0471 12.8655 32.0471Z" fill="#DB4B86"/>
</g>
<defs>
<clipPath id="clip0_7174_23024">
<rect width="36" height="36" fill="white" transform="translate(0 0.000244141)"/>
</clipPath>
</defs>
</svg>
