
<svg width="25" height="25" viewBox="0 0 25 25" fill="none" xmlns="http://www.w3.org/2000/svg">
<path d="M12.1006 23.5411C18.3392 23.5411 23.3966 18.4837 23.3966 12.2452C23.3966 6.00658 18.3392 0.949219 12.1006 0.949219C5.86205 0.949219 0.804688 6.00658 0.804688 12.2452C0.804688 18.4837 5.86205 23.5411 12.1006 23.5411Z" fill="#FDCB50"/>
<path fill-rule="evenodd" clip-rule="evenodd" d="M23.3165 13.6003C22.7011 18.7576 18.6112 22.8476 13.4538 23.4629C12.6036 22.2971 12.1016 20.8613 12.1016 19.308C12.1016 15.4089 15.2624 12.248 19.1615 12.248C20.7148 12.248 22.1507 12.7501 23.3165 13.6003Z" fill="#FD8F01"/>
<path d="M12.0988 21.1859C17.0377 21.1859 21.0414 17.1822 21.0414 12.2434C21.0414 7.30451 17.0377 3.30078 12.0988 3.30078C7.15998 3.30078 3.15625 7.30451 3.15625 12.2434C3.15625 17.1822 7.15998 21.1859 12.0988 21.1859Z" fill="#67CCD1"/>
<path fill-rule="evenodd" clip-rule="evenodd" d="M21.0404 12.5013C20.9085 17.2388 17.0923 21.055 12.3548 21.1867C12.19 20.5885 12.1016 19.9586 12.1016 19.308C12.1016 15.4089 15.2624 12.248 19.1615 12.248C19.8122 12.2481 20.4421 12.3365 21.0404 12.5013Z" fill="#27A2CC"/>
<path fill-rule="evenodd" clip-rule="evenodd" d="M19.1598 14.5977C16.5603 14.5977 14.4531 16.7049 14.4531 19.3043C14.4531 21.9036 16.5603 24.0108 19.1598 24.0108C21.7592 24.0108 23.8664 21.9036 23.8664 19.3043C23.8664 16.7049 21.7592 14.5977 19.1598 14.5977Z" fill="white"/>
<path fill-rule="evenodd" clip-rule="evenodd" d="M19.1595 16.9531C18.1847 16.9531 17.3945 17.7433 17.3945 18.7181C17.3945 19.6929 18.1847 20.483 19.1595 20.483C20.1342 20.483 20.9244 19.6928 20.9244 18.7181C20.9244 17.7433 20.1342 16.9531 19.1595 16.9531Z" fill="#FDBEB9"/>
<path fill-rule="evenodd" clip-rule="evenodd" d="M19.1621 24.0104C20.2661 24.0104 21.2813 23.6303 22.084 22.9938L22.0544 22.8834C21.8017 21.5178 20.6057 20.4831 19.1675 20.4805C19.1657 20.4805 19.1638 20.4805 19.162 20.4805C19.1602 20.4805 19.1584 20.4805 19.1565 20.4805C17.7279 20.4831 16.5381 21.5042 16.2748 22.8564L16.2383 22.9924C17.0413 23.6298 18.0572 24.0104 19.1621 24.0104Z" fill="#BC9AF4"/>
<path fill-rule="evenodd" clip-rule="evenodd" d="M17.7717 20.9578L19.16 23.3625L20.5484 20.9578L20.6053 20.8594C20.1799 20.619 19.6888 20.4814 19.1655 20.4805C19.1637 20.4805 19.1619 20.4805 19.16 20.4805C19.1582 20.4805 19.1564 20.4805 19.1546 20.4805C18.6313 20.4814 18.1402 20.619 17.7148 20.8594L17.7717 20.9578Z" fill="white"/>
<path d="M23.2175 16.0935C23.6473 14.8524 23.8653 13.5573 23.8653 12.2434C23.8653 9.10095 22.6415 6.1466 20.4195 3.92454C18.1974 1.70253 15.2431 0.47876 12.1006 0.47876C8.95808 0.47876 6.00378 1.70253 3.78177 3.92454C1.55966 6.1466 0.335938 9.10099 0.335938 12.2434C0.335938 15.3859 1.55966 18.3402 3.78177 20.5623C6.00378 22.7844 8.95817 24.0081 12.1006 24.0081C13.4149 24.0081 14.7096 23.7902 15.9506 23.3603C16.8334 24.0603 17.949 24.4788 19.1606 24.4788C22.0143 24.4788 24.3359 22.1571 24.3359 19.3035C24.3359 18.0919 23.9174 16.9763 23.2175 16.0935ZM1.27344 12.2434C1.27344 6.27331 6.13048 1.41626 12.1006 1.41626C18.0707 1.41626 22.9278 6.27331 22.9278 12.2434C22.9278 13.2936 22.7765 14.3308 22.4775 15.3337C22.1009 15.0186 21.679 14.7559 21.2231 14.557C21.4148 13.801 21.5119 13.0239 21.5119 12.2434C21.5119 7.05401 17.29 2.83212 12.1006 2.83212C6.91114 2.83212 2.68925 7.05401 2.68925 12.2434C2.68925 17.4329 6.91114 21.6548 12.1006 21.6548C12.8808 21.6548 13.6582 21.5576 14.414 21.366C14.6129 21.8219 14.8756 22.2438 15.1907 22.6203C14.188 22.9193 13.151 23.0706 12.1006 23.0706C6.13048 23.0706 1.27344 18.2135 1.27344 12.2434ZM13.9852 19.3035C13.9852 19.7057 14.0313 20.0974 14.1186 20.4735C13.6103 20.5981 13.0916 20.6753 12.5694 20.7043V19.8893C12.5694 19.6304 12.3595 19.4205 12.1006 19.4205C11.8418 19.4205 11.6319 19.6304 11.6319 19.8893V20.7044C10.4303 20.6386 9.29459 20.3213 8.27661 19.8043L8.44831 19.5069C8.57778 19.2827 8.50095 18.996 8.27675 18.8666C8.05245 18.7371 7.76586 18.8139 7.63644 19.0382L7.46553 19.3342C6.48828 18.6933 5.65086 17.8558 5.00984 16.8785L5.30591 16.7076C5.53011 16.5782 5.60694 16.2915 5.47747 16.0673C5.348 15.8431 5.06141 15.7662 4.83716 15.8957L4.53973 16.0674C4.0228 15.0494 3.70545 13.9137 3.63964 12.7122H4.4548C4.71364 12.7122 4.92355 12.5023 4.92355 12.2434C4.92355 11.9845 4.71364 11.7747 4.4548 11.7747H3.63964C3.70545 10.5731 4.0228 9.43737 4.53973 8.41938L4.83716 8.59109C4.91098 8.6337 4.99156 8.65395 5.07106 8.65395C5.23306 8.65395 5.39066 8.5699 5.47747 8.41948C5.60694 8.19527 5.53011 7.90864 5.30591 7.77917L5.00984 7.60826C5.65086 6.63101 6.48823 5.79359 7.46553 5.15262L7.63644 5.44868C7.72325 5.59906 7.8808 5.68315 8.04284 5.68315C8.12234 5.68315 8.20292 5.6629 8.27675 5.62029C8.50095 5.49082 8.57778 5.20418 8.44831 4.97998L8.27656 4.68251C9.29455 4.16557 10.4302 3.84823 11.6318 3.78242V4.59753C11.6318 4.85642 11.8417 5.06628 12.1006 5.06628C12.3594 5.06628 12.5693 4.85642 12.5693 4.59753V3.78242C13.7709 3.84823 14.9066 4.16557 15.9246 4.68251L15.7529 4.97989C15.6234 5.20409 15.7002 5.49078 15.9245 5.62024C15.9982 5.66285 16.0789 5.6831 16.1584 5.6831C16.3204 5.6831 16.4779 5.59906 16.5648 5.44868L16.7357 5.15262C17.713 5.79359 18.5504 6.63101 19.1914 7.60826L18.8953 7.77917C18.6711 7.90859 18.5943 8.19527 18.7238 8.41948C18.8106 8.56985 18.9681 8.6539 19.1302 8.6539C19.2097 8.6539 19.2903 8.63365 19.3641 8.59104L19.6615 8.41934C20.1784 9.43732 20.4958 10.573 20.5616 11.7746H19.7465C19.4876 11.7746 19.2777 11.9845 19.2777 12.2434C19.2777 12.5022 19.4876 12.7121 19.7465 12.7121H20.5614C20.5325 13.2344 20.4552 13.7531 20.3306 14.2614C19.9544 14.1742 19.5627 14.128 19.1605 14.128C16.3069 14.1281 13.9852 16.4498 13.9852 19.3035ZM16.7667 22.7988C17.0464 21.7189 18.029 20.9497 19.1586 20.9489C19.1593 20.9489 19.1599 20.9489 19.1605 20.9489C19.1612 20.9489 19.1618 20.9489 19.1624 20.9489C20.2955 20.9498 21.275 21.7176 21.5544 22.7988C20.8729 23.267 20.0481 23.5413 19.1605 23.5413C18.273 23.5413 17.4483 23.2669 16.7667 22.7988ZM17.8644 18.7152C17.8644 18.0004 18.4458 17.4189 19.1605 17.4189C19.8752 17.4189 20.4567 18.0004 20.4567 18.7152C20.4567 19.4291 19.8766 20.01 19.163 20.0113C19.1622 20.0113 19.1614 20.0113 19.1605 20.0113C19.1597 20.0113 19.1589 20.0113 19.158 20.0113C18.4445 20.01 17.8644 19.4291 17.8644 18.7152ZM22.3174 22.1278C21.9995 21.3503 21.4065 20.7258 20.6681 20.3619C21.1141 19.9533 21.3942 19.3663 21.3942 18.7152C21.3942 17.4835 20.3922 16.4814 19.1606 16.4814C17.9289 16.4814 16.9269 17.4835 16.9269 18.7152C16.9269 19.3668 17.2075 19.9542 17.654 20.3629C16.9162 20.7272 16.3224 21.3517 16.004 22.1282C15.3319 21.378 14.9227 20.3876 14.9227 19.3035C14.9227 16.9667 16.8238 15.0656 19.1606 15.0656C21.4973 15.0656 23.3984 16.9667 23.3984 19.3035C23.3984 20.3875 22.9893 21.3776 22.3174 22.1278Z" fill="#052A75"/>
<path d="M12.1023 6.24634C11.8434 6.24634 11.6335 6.4562 11.6335 6.71509V11.7742H8.45703C8.19819 11.7742 7.98828 11.9841 7.98828 12.243C7.98828 12.5019 8.19819 12.7117 8.45703 12.7117H12.1023C12.3611 12.7117 12.571 12.5019 12.571 12.243V6.71509C12.571 6.4562 12.3612 6.24634 12.1023 6.24634Z" fill="white"/>
</svg>
