
<svg width="24" height="24" viewBox="0 0 24 24" fill="none" xmlns="http://www.w3.org/2000/svg">
<g clipPath="url(#clip0_7174_23164)">
<path d="M23.0055 8.69779C22.3954 8.19074 21.492 8.27336 20.9856 8.8813L14.7709 16.3287L12.1134 13.6712L10.2695 15.884L13.8534 19.4678C14.1231 19.7375 14.4879 19.8881 14.8676 19.8881C14.8893 19.8881 14.911 19.8873 14.9327 19.8867C15.3354 19.8685 15.7115 19.6815 15.9693 19.3719L23.189 10.7177C23.6961 10.1091 23.6141 9.20489 23.0055 8.69779Z" fill="#67CCD1"/>
<path d="M6.26193 19.8871C5.88234 19.8871 5.51744 19.7365 5.24777 19.4668L0.896802 15.1159C0.336483 14.5556 0.336483 13.6479 0.896802 13.0876C1.45712 12.5272 2.3648 12.5272 2.92512 13.0876L6.1653 16.3277L12.3322 8.92817C12.8385 8.32023 13.742 8.23761 14.3521 8.74467C14.9607 9.25172 15.0426 10.156 14.5356 10.7646L7.36363 19.3709C7.10588 19.6805 6.72978 19.8675 6.32705 19.8857C6.30534 19.8864 6.28364 19.8871 6.26193 19.8871Z" fill="#B1D952"/>
<path d="M12.0016 6.0237C11.7375 6.0237 11.5234 5.80964 11.5234 5.54557V4.11119C11.5234 3.84711 11.7375 3.63306 12.0016 3.63306C12.2656 3.63306 12.4797 3.84711 12.4797 4.11119V5.54557C12.4797 5.80964 12.2656 6.0237 12.0016 6.0237Z" fill="#FDCB50"/>
<path d="M7.94164 6.26957C7.81924 6.26957 7.69693 6.22291 7.60355 6.12953L6.58925 5.11527C6.40254 4.92856 6.40254 4.62581 6.58925 4.4391C6.77601 4.25239 7.07866 4.25239 7.26547 4.4391L8.27977 5.45336C8.46648 5.64007 8.46648 5.94282 8.27977 6.12953C8.18634 6.22286 8.06399 6.26957 7.94164 6.26957Z" fill="#FDCB50"/>
<path d="M16.0562 6.26957C15.9339 6.26957 15.8115 6.22291 15.7182 6.12953C15.5314 5.94277 15.5314 5.64007 15.7182 5.45336L16.7325 4.4391C16.9193 4.25239 17.222 4.25239 17.4087 4.4391C17.5954 4.62586 17.5954 4.92856 17.4087 5.11527L16.3944 6.12953C16.301 6.22286 16.1786 6.26957 16.0562 6.26957Z" fill="#FDCB50"/>
<path d="M23.3126 8.33259C22.5017 7.65843 21.2935 7.7684 20.6198 8.57739L14.7402 15.6231L12.7613 13.6441L14.9033 11.0737C15.2303 10.6816 15.3852 10.1853 15.3388 9.67661C15.2929 9.16788 15.051 8.70744 14.6585 8.3804C13.8471 7.70624 12.6393 7.81621 11.9656 8.6252L6.13391 15.6226L3.26371 12.7529C2.90272 12.3914 2.4222 12.1925 1.91156 12.1925C1.40092 12.1925 0.920398 12.3914 0.559411 12.7529C-0.18647 13.4983 -0.18647 14.7118 0.559411 15.4572L4.91038 19.8082C5.27137 20.1696 5.75189 20.3685 6.26253 20.3685C6.2893 20.3685 6.31608 20.3676 6.34285 20.3671C6.34525 20.3666 6.34716 20.3666 6.34907 20.3666C6.88457 20.3422 7.38852 20.0922 7.73134 19.6805L10.3027 16.5947L13.5167 19.8082C13.8777 20.1696 14.3582 20.3685 14.8688 20.3685C14.8956 20.3685 14.9224 20.3676 14.9492 20.3671C14.9516 20.3666 14.9535 20.3666 14.9554 20.3666C15.4909 20.3422 15.9948 20.0922 16.3377 19.6805L23.5574 11.0259C24.2325 10.2159 24.123 9.00771 23.3126 8.33259ZM6.99693 19.0685C6.82576 19.2736 6.57522 19.3984 6.30891 19.4113C6.29313 19.4118 6.27783 19.4123 6.26253 19.4123C6.00721 19.4123 5.76719 19.3128 5.58645 19.1321L1.23548 14.7811C0.862544 14.4082 0.862544 13.8019 1.23548 13.429C1.42195 13.2425 1.66676 13.1493 1.91156 13.1493C2.15636 13.1493 2.40116 13.2425 2.58763 13.429L5.82791 16.6692C5.92258 16.7639 6.05263 16.8146 6.18746 16.8089C6.32182 16.8026 6.44709 16.7405 6.53315 16.6372L12.7001 9.23769C13.0371 8.83319 13.6415 8.7782 14.0465 9.11529C14.243 9.27881 14.3635 9.50879 14.3869 9.76315C14.4098 10.0175 14.3324 10.2657 14.1689 10.4617L6.99693 19.0685ZM22.823 10.4139L15.6032 19.0685C15.4321 19.2736 15.1815 19.3984 14.9152 19.4113C14.8994 19.4118 14.8841 19.4123 14.8688 19.4123C14.6135 19.4123 14.3735 19.3128 14.1928 19.1321L10.9176 15.8569L12.1469 14.3819L14.4342 16.6692C14.5289 16.7639 14.6604 16.8146 14.7938 16.8089C14.9277 16.8026 15.0534 16.7405 15.1395 16.6372L21.3542 9.18987C21.6913 8.78538 22.2956 8.73039 22.7006 9.06747C22.8971 9.23099 23.0176 9.46097 23.041 9.71534C23.064 9.9697 22.9865 10.2179 22.823 10.4139Z" fill="#052A75"/>
</g>
<defs>
<clipPath id="clip0_7174_23164">
<rect width="24" height="24" fill="white" transform="translate(0 0.000244141)"/>
</clipPath>
</defs>
</svg>
