<svg width="36" height="36" viewBox="0 0 36 36" fill="none" xmlns="http://www.w3.org/2000/svg">
<g clip-path="url(#clip0_7174_23230)">
<path d="M23.7652 22.6112C23.7652 22.6112 23.7652 20.8818 23.7652 19.1524C23.7652 17.2421 25.3138 15.6935 27.2241 15.6935C27.2241 15.6935 27.2241 7.2144 27.2241 3.01116C27.2241 2.39958 26.9811 1.81306 26.5487 1.38064C26.1163 0.948216 25.5298 0.705322 24.9182 0.705322C19.9697 0.705322 8.77702 0.705322 8.77702 0.705322L1.85938 7.62297C1.85938 7.62297 1.85938 26.3423 1.85938 32.9877C1.85938 34.2611 2.8918 35.2936 4.16528 35.2936C9.1138 35.2936 20.3065 35.2936 20.3065 35.2936V22.6112H23.7652Z" fill="white"/>
<path d="M1.85938 7.62304C1.85938 7.62304 1.85938 8.04191 1.85938 8.77596C1.85938 8.77596 5.23886 8.77596 7.6241 8.77596C8.89759 8.77596 9.93001 7.74353 9.93001 6.47005C9.93001 4.08487 9.93001 0.705322 9.93001 0.705322C9.20479 0.705322 8.77709 0.705322 8.77709 0.705322L1.85938 7.62304Z" fill="#D2DCFD"/>
<path d="M20.3068 22.6117H23.7656C23.7656 22.6117 23.7656 20.8823 23.7656 19.1529C23.7656 19.1292 23.7669 19.1059 23.7673 19.0823H20.3068C18.3575 19.0823 16.7773 20.6625 16.7773 22.6117V35.2941C18.8602 35.2941 20.3068 35.2941 20.3068 35.2941V22.6117Z" fill="#D2DCFD"/>
<path d="M34.14 22.6096H20.3047V35.292H34.14V22.6096Z" fill="#FD8F01"/>
<path d="M19.1532 15.246H7.62385C7.23399 15.246 6.91797 14.93 6.91797 14.5401C6.91797 14.1503 7.23399 13.8342 7.62385 13.8342H19.1532C19.543 13.8342 19.8591 14.1503 19.8591 14.5401C19.8591 14.93 19.543 15.246 19.1532 15.246Z" fill="#052A75"/>
<path d="M14.5415 19.8612H7.62385C7.23399 19.8612 6.91797 19.5452 6.91797 19.1553C6.91797 18.7655 7.23399 18.4495 7.62385 18.4495H14.5415C14.9314 18.4495 15.2474 18.7655 15.2474 19.1553C15.2474 19.5452 14.9314 19.8612 14.5415 19.8612Z" fill="#052A75"/>
<path d="M14.5415 24.4706H7.62385C7.23399 24.4706 6.91797 24.1546 6.91797 23.7647C6.91797 23.3749 7.23399 23.0588 7.62385 23.0588H14.5415C14.9314 23.0588 15.2474 23.3749 15.2474 23.7647C15.2474 24.1546 14.9314 24.4706 14.5415 24.4706Z" fill="#052A75"/>
<path d="M14.5415 29.0819H7.62385C7.23399 29.0819 6.91797 28.7659 6.91797 28.376C6.91797 27.9862 7.23399 27.6702 7.62385 27.6702H14.5415C14.9314 27.6702 15.2474 27.9862 15.2474 28.376C15.2474 28.7659 14.9314 29.0819 14.5415 29.0819Z" fill="#052A75"/>
<path d="M27.2215 31.3865C26.8317 31.3865 26.5156 31.0704 26.5156 30.6806V27.2218C26.5156 26.8319 26.8317 26.5159 27.2215 26.5159C27.6114 26.5159 27.9274 26.8319 27.9274 27.2218V30.6806C27.9274 31.0704 27.6113 31.3865 27.2215 31.3865Z" fill="#052A75"/>
<path d="M34.1406 21.9061H24.47V19.1532C24.47 17.6352 25.705 16.4002 27.223 16.4002C28.741 16.4002 29.9759 17.6352 29.9759 19.1532C29.9759 19.543 30.292 19.859 30.6818 19.859C31.0717 19.859 31.3877 19.543 31.3877 19.1532C31.3877 17.0974 29.8901 15.3859 27.9289 15.0495V3.01203C27.9289 2.20747 27.6156 1.45119 27.0467 0.882456C26.4779 0.313585 25.7216 0.000244141 24.9171 0.000244141H8.77587C8.58867 0.000244141 8.4091 0.0746441 8.27674 0.206997L1.3591 7.12464C1.22674 7.257 1.15234 7.43657 1.15234 7.62377V32.9885C1.15234 34.6492 2.5034 36.0002 4.16413 36.0002H20.3053H34.1406C34.5305 36.0002 34.8465 35.6842 34.8465 35.2944V22.612C34.8465 22.2222 34.5304 21.9061 34.1406 21.9061ZM9.06825 1.41201H9.22291V6.47086C9.22291 7.35307 8.50517 8.07088 7.62296 8.07088H2.56411V7.91622L9.06825 1.41201ZM19.5994 22.612V34.5885H4.16413C3.28185 34.5885 2.56411 33.8707 2.56411 32.9885V9.48257H7.62296C9.28361 9.48257 10.6347 8.13152 10.6347 6.47079V1.41201H24.9171C25.3445 1.41201 25.7463 1.57846 26.0485 1.88071C26.3507 2.18283 26.5171 2.58462 26.5171 3.01203V15.0496C24.5559 15.386 23.0583 17.0975 23.0583 19.1532V21.9062H20.3053C19.9155 21.9061 19.5994 22.2222 19.5994 22.612ZM33.4347 34.5885H21.0112V23.3179H33.4347V34.5885Z" fill="#052A75"/>
</g>
<defs>
<clipPath id="clip0_7174_23230">
<rect width="36" height="36" fill="white" transform="translate(0 0.000244141)"/>
</clipPath>
</defs>
</svg>
