<?xml version="1.0" encoding="iso-8859-1"?>
<!-- Generator: Adobe Illustrator 28.0.0, SVG Export Plug-In . SVG Version: 6.00 Build 0)  -->
<svg version="1.1" id="Layer_1" xmlns="http://www.w3.org/2000/svg" xmlns:xlink="http://www.w3.org/1999/xlink" x="0px" y="0px"
	 viewBox="0 0 512 512" style="enable-background:new 0 0 512 512;" xml:space="preserve">
<g>
	<g>
		<g>
			<g>
				<path style="fill:#FD6050;" d="M379.176,235.577l37.98,36.439c20.966,20.115,27.118,51.116,15.411,77.663l-40.91,92.767
					l-68.878-48.776L379.176,235.577z"/>
			</g>
			<g>
				<path style="fill:#DB4B86;" d="M165.967,235.577l-37.98,36.439c-20.966,20.115-27.118,51.116-15.411,77.663l40.91,92.767
					l68.878-48.776L165.967,235.577z"/>
			</g>
		</g>
		<g>
			<g>
				<g>
					<path style="fill:#FFFFFF;" d="M382.159,238.208c0-92.21-42.75-174.475-109.587-228.208
						c-66.837,53.733-109.587,135.998-109.587,228.208c0,62.718,19.777,107.795,53.459,155.463h112.256
						C362.381,346.003,382.159,300.926,382.159,238.208z"/>
				</g>
			</g>
			<g>
				<path style="fill:#D2DCFD;" d="M234.462,204.238c0-65.539,23.581-125.569,62.722-172.071
					c-7.777-7.837-15.994-15.239-24.612-22.167c-66.837,53.733-109.587,135.998-109.587,228.208
					c0,62.718,19.777,107.795,53.459,155.463h96.705C264.543,345.257,234.462,278.261,234.462,204.238z"/>
			</g>
		</g>
		<g>
			<g>
				<path style="fill:#BC9AF4;" d="M272.572,10c-32.747,26.326-59.711,59.502-78.699,97.34H351.27
					C332.283,69.502,305.318,36.326,272.572,10z"/>
			</g>
			<g>
				<path style="fill:#6864F7;" d="M297.183,32.168c-7.777-7.837-15.994-15.24-24.612-22.168
					c-32.747,26.326-59.711,59.502-78.699,97.34h58.689C263.287,79.771,278.453,54.42,297.183,32.168z"/>
			</g>
		</g>
		<g>
			<path style="fill:#FD7DA0;" d="M316.187,437.074c0,43.949-43.616,74.926-43.616,74.926s-43.616-30.09-43.616-74.926
				c0-23.991,19.527-43.44,43.616-43.44S316.187,413.083,316.187,437.074z"/>
		</g>
		<g>
			<ellipse style="fill:#67CCD1;" cx="272.572" cy="192.993" rx="41.536" ry="41.368"/>
		</g>
		<g>
			<ellipse style="fill:#67CCD1;" cx="272.572" cy="310.746" rx="27.41" ry="27.299"/>
		</g>
	</g>
	<g>
		<g>
			<path style="fill:#052A75;" d="M424.079,264.8l-31.688-30.402c-0.085-0.082-0.172-0.161-0.259-0.239
				C390.94,143.605,349.798,59.254,278.837,2.207c-3.658-2.941-8.871-2.942-12.531,0c-70.958,57.046-112.1,141.393-113.295,231.942
				L121.064,264.8c-23.893,22.924-30.981,58.656-17.637,88.914l40.911,92.768c1.211,2.747,3.593,4.804,6.486,5.604
				c0.876,0.242,1.772,0.361,2.663,0.361c2.049,0,4.072-0.63,5.78-1.839l66.281-46.938h94.097c0.19,0.157,0.387,0.308,0.591,0.453
				l65.642,46.485c1.708,1.209,3.73,1.839,5.78,1.839c0.891,0,1.787-0.119,2.663-0.361c2.894-0.8,5.275-2.857,6.486-5.604
				l40.91-92.768C455.06,323.456,447.972,287.724,424.079,264.8z M272.571,22.977c63.393,53.96,99.587,131.944,99.587,215.231
				c0,52.943-14.152,95.421-48.673,145.462H221.657c-34.521-50.042-48.673-92.521-48.673-145.462
				C172.984,154.922,209.179,76.938,272.571,22.977z M157.697,427.211l-35.971-81.567c-9.965-22.597-4.667-49.286,13.184-66.412
				l18.936-18.168c3.654,46.809,19.143,87.046,50.676,132.987L157.697,427.211z M423.417,345.644l-35.971,81.567l-46.825-33.16
				c31.533-45.941,47.022-86.178,50.676-132.987l18.936,18.168C428.084,296.358,433.382,323.047,423.417,345.644z"/>
			<path style="fill:#052A75;" d="M272.571,244.362c28.417,0,51.536-23.043,51.536-51.368s-23.119-51.369-51.536-51.369
				s-51.536,23.044-51.536,51.369S244.154,244.362,272.571,244.362z M272.571,161.625c17.389,0,31.536,14.072,31.536,31.369
				c0,17.296-14.147,31.368-31.536,31.368s-31.536-14.072-31.536-31.368C241.036,175.697,255.183,161.625,272.571,161.625z"/>
		</g>
		<g>
			<path style="fill:#6864F7;" d="M109.352,191.835h-7.868v-7.868c0-5.523-4.477-10-10-10s-10,4.477-10,10v7.868h-7.869
				c-5.523,0-10,4.477-10,10s4.477,10,10,10h7.869v7.869c0,5.523,4.477,10,10,10s10-4.477,10-10v-7.869h7.868
				c5.523,0,10-4.477,10-10S114.875,191.835,109.352,191.835z"/>
			<path style="fill:#6864F7;" d="M405.614,0c-5.523,0-10,4.477-10,10v6.958c0,5.523,4.477,10,10,10s10-4.477,10-10V10
				C415.614,4.477,411.137,0,405.614,0z"/>
			<path style="fill:#6864F7;" d="M405.614,53.127c-5.523,0-10,4.477-10,10v6.958c0,5.523,4.477,10,10,10s10-4.477,10-10v-6.958
				C415.614,57.604,411.137,53.127,405.614,53.127z"/>
			<path style="fill:#6864F7;" d="M435.656,30.042h-6.957c-5.523,0-10,4.477-10,10s4.477,10,10,10h6.957c5.523,0,10-4.477,10-10
				S441.179,30.042,435.656,30.042z"/>
			<path style="fill:#6864F7;" d="M382.529,30.042h-6.958c-5.523,0-10,4.477-10,10s4.477,10,10,10h6.958c5.523,0,10-4.477,10-10
				S388.052,30.042,382.529,30.042z"/>
		</g>
	</g>
</g>
<g>
</g>
<g>
</g>
<g>
</g>
<g>
</g>
<g>
</g>
<g>
</g>
<g>
</g>
<g>
</g>
<g>
</g>
<g>
</g>
<g>
</g>
<g>
</g>
<g>
</g>
<g>
</g>
<g>
</g>
</svg>
