
<svg width="36" height="36" viewBox="0 0 36 36" fill="none" xmlns="http://www.w3.org/2000/svg">
<g clipPath="url(#clip0_7174_22984)">
<path d="M28.3958 35.0402H3.51562C1.96235 35.0402 0.703125 33.781 0.703125 32.2277V9.47681H31.2083V32.2277C31.2083 33.781 29.949 35.0402 28.3958 35.0402Z" fill="white"/>
<path d="M28.3392 17.5881C22.5427 17.5881 17.8438 22.2871 17.8438 28.0836C17.8438 30.7529 18.8408 33.1889 20.482 35.041H28.3955C29.9488 35.041 31.208 33.7819 31.208 32.2285V17.9851C30.2963 17.7266 29.3339 17.5881 28.3392 17.5881Z" fill="#D2DCFD"/>
<path d="M31.2083 9.47697H0.703125V6.67017C0.703125 5.11689 1.96235 3.85767 3.51562 3.85767H28.3958C29.949 3.85767 31.2083 5.11689 31.2083 6.67017V9.47697Z" fill="#FD6050"/>
<path d="M6.2682 6.55034H6.24612C5.42416 6.55034 4.75781 5.88399 4.75781 5.06203V2.44753C4.75781 1.62558 5.42416 0.959229 6.24612 0.959229H6.2682C7.09015 0.959229 7.7565 1.62558 7.7565 2.44753V5.0621C7.7565 5.88399 7.09015 6.55034 6.2682 6.55034Z" fill="#27A2CC"/>
<path d="M25.6666 6.55034H25.6446C24.8226 6.55034 24.1562 5.88399 24.1562 5.06203V2.44753C24.1562 1.62558 24.8226 0.959229 25.6446 0.959229H25.6666C26.4886 0.959229 27.1549 1.62558 27.1549 2.44753V5.0621C27.1549 5.88399 26.4886 6.55034 25.6666 6.55034Z" fill="#27A2CC"/>
<path d="M28.3402 35.0401C32.1827 35.0401 35.2977 31.9251 35.2977 28.0827C35.2977 24.2402 32.1827 21.1252 28.3402 21.1252C24.4978 21.1252 21.3828 24.2402 21.3828 28.0827C21.3828 31.9251 24.4978 35.0401 28.3402 35.0401Z" fill="white"/>
<path d="M8.6633 24.4992H6.36689C5.81473 24.4992 5.36719 24.0516 5.36719 23.4995V21.2031C5.36719 20.6509 5.8148 20.2034 6.36689 20.2034H8.6633C9.21546 20.2034 9.663 20.651 9.663 21.2031V23.4995C9.663 24.0516 9.21539 24.4992 8.6633 24.4992Z" fill="#6864F7"/>
<path d="M17.1047 24.4992H14.8083C14.2561 24.4992 13.8086 24.0516 13.8086 23.4995V21.2031C13.8086 20.6509 14.2562 20.2034 14.8083 20.2034H17.1047C17.6569 20.2034 18.1044 20.651 18.1044 21.2031V23.4995C18.1044 24.0516 17.6569 24.4992 17.1047 24.4992Z" fill="#6864F7"/>
<path d="M8.65939 31.6964H6.36298C5.81082 31.6964 5.36328 31.2488 5.36328 30.6967V28.4003C5.36328 27.8482 5.81089 27.4006 6.36298 27.4006H8.65939C9.21155 27.4006 9.65909 27.8482 9.65909 28.4003V30.6967C9.65909 31.2488 9.21148 31.6964 8.65939 31.6964Z" fill="#6864F7"/>
<path d="M17.1047 31.6964H14.8083C14.2561 31.6964 13.8086 31.2488 13.8086 30.6967V28.4003C13.8086 27.8482 14.2562 27.4006 14.8083 27.4006H17.1047C17.6569 27.4006 18.1044 27.8482 18.1044 28.4003V30.6967C18.1044 31.2488 17.6569 31.6964 17.1047 31.6964Z" fill="#6864F7"/>
<path d="M8.6633 17.1183H6.36689C5.81473 17.1183 5.36719 16.6707 5.36719 16.1186V13.8222C5.36719 13.27 5.8148 12.8225 6.36689 12.8225H8.6633C9.21546 12.8225 9.663 13.2701 9.663 13.8222V16.1186C9.663 16.6707 9.21539 17.1183 8.6633 17.1183Z" fill="#6864F7"/>
<path d="M17.1047 17.1183H14.8083C14.2561 17.1183 13.8086 16.6707 13.8086 16.1186V13.8222C13.8086 13.27 14.2562 12.8225 14.8083 12.8225H17.1047C17.6569 12.8225 18.1044 13.2701 18.1044 13.8222V16.1186C18.1044 16.6707 17.6569 17.1183 17.1047 17.1183Z" fill="#6864F7"/>
<path d="M25.5461 17.1183H23.2497C22.6975 17.1183 22.25 16.6707 22.25 16.1186V13.8222C22.25 13.27 22.6976 12.8225 23.2497 12.8225H25.5461C26.0983 12.8225 26.5458 13.2701 26.5458 13.8222V16.1186C26.5458 16.6707 26.0982 17.1183 25.5461 17.1183Z" fill="#6864F7"/>
<path d="M36 28.0836C36 25.1488 34.3408 22.5946 31.9114 21.3086V6.67085C31.9114 4.73234 30.3343 3.15523 28.3958 3.15523H27.8567V2.44753C27.8567 1.23921 26.8736 0.256104 25.6653 0.256104H25.6432C24.4349 0.256104 23.4518 1.23914 23.4518 2.44753V3.15516H8.45951V2.44753C8.45951 1.23921 7.47647 0.256104 6.26808 0.256104H6.246C5.03768 0.256104 4.05457 1.23914 4.05457 2.44753V3.15516H3.51562C1.57711 3.15516 0 4.73227 0 6.67078V32.2285C0 34.167 1.57711 35.7441 3.51562 35.7441H28.5613C28.5933 35.7441 28.6246 35.7412 28.6554 35.7371C32.7335 35.5708 36 32.2017 36 28.0836ZM24.8581 2.44753C24.8581 2.01462 25.2103 1.66235 25.6433 1.66235H25.6653C26.0982 1.66235 26.4505 2.01455 26.4505 2.44753V5.0621C26.4505 5.49502 26.0983 5.84728 25.6653 5.84728H25.6433C25.2103 5.84728 24.8581 5.49509 24.8581 5.0621V2.44753ZM5.46089 2.44753C5.46089 2.01462 5.81309 1.66235 6.24607 1.66235H6.26815C6.70106 1.66235 7.05333 2.01455 7.05333 2.44753V5.0621C7.05333 5.49502 6.70113 5.84728 6.26815 5.84728H6.24607C5.81316 5.84728 5.46089 5.49509 5.46089 5.0621V2.44753ZM1.40625 6.67085C1.40625 5.50774 2.35252 4.56148 3.51562 4.56148H4.05464V5.06217C4.05464 6.27049 5.03768 7.2536 6.24607 7.2536H6.26815C7.47647 7.2536 8.45958 6.27056 8.45958 5.06217V4.56148H23.4519V5.06217C23.4519 6.27049 24.4349 7.2536 25.6433 7.2536H25.6654C26.8737 7.2536 27.8568 6.27056 27.8568 5.06217V4.56148H28.3959C29.559 4.56148 30.5053 5.50774 30.5053 6.67085V8.77453H1.40625V6.67085ZM3.51562 34.3379C2.35252 34.3379 1.40625 33.3916 1.40625 32.2285V10.1808H30.5051V20.7353C29.8181 20.5324 29.0913 20.423 28.3394 20.423C24.1154 20.423 20.6788 23.8595 20.6788 28.0835C20.6788 30.6632 21.9606 32.949 23.9207 34.3378H3.51562V34.3379ZM28.3394 34.3379C24.8908 34.3379 22.0851 31.5322 22.0851 28.0836C22.0851 24.635 24.8908 21.8293 28.3394 21.8293C31.788 21.8293 34.5938 24.6349 34.5938 28.0836C34.5938 31.5323 31.7881 34.3379 28.3394 34.3379Z" fill="#052A75"/>
<path d="M28.3398 29.1003C27.9515 29.1003 27.6367 28.7855 27.6367 28.3972V24.6389C27.6367 24.2506 27.9515 23.9358 28.3398 23.9358C28.7282 23.9358 29.043 24.2506 29.043 24.6389V28.3972C29.043 28.7855 28.7282 29.1003 28.3398 29.1003Z" fill="#27A2CC"/>
<path d="M30.2189 29.0999H28.4023C28.014 29.0999 27.6992 28.7851 27.6992 28.3967C27.6992 28.0084 28.014 27.6936 28.4023 27.6936H30.2189C30.6073 27.6936 30.9221 28.0084 30.9221 28.3967C30.9221 28.7851 30.6073 29.0999 30.2189 29.0999Z" fill="#27A2CC"/>
</g>
<defs>
<clipPath id="clip0_7174_22984">
<rect width="36" height="36" fill="white" transform="translate(0 0.000244141)"/>
</clipPath>
</defs>
</svg>
