
<svg width="36" height="36" viewBox="0 0 36 36" fill="none" xmlns="http://www.w3.org/2000/svg">
<g clipPath="url(#clip0_7174_22966)">
<path fill-rule="evenodd" clip-rule="evenodd" d="M30.1133 5.05665V17.7831C30.1133 21.7111 29.0428 25.4862 25.9221 27.8475L16.0809 35.2938L6.23117 27.8482C3.10737 25.4869 2.03516 21.7097 2.03516 17.7792C2.03516 13.2082 2.03516 9.65438 2.03516 5.08341C10.9161 -0.120359 19.9643 -1.05702 28.8452 4.26324L30.1133 5.05665Z" fill="white"/>
<path fill-rule="evenodd" clip-rule="evenodd" d="M25.6765 28.0332L16.0805 35.2938L6.23096 27.8483C3.10687 25.4874 2.03516 21.7103 2.03516 17.7792V5.08379C5.61814 2.98412 9.22795 1.57988 12.8434 1.00024C5.606 11.969 12.8429 26.7729 25.6765 28.0332Z" fill="#D2DCFD"/>
<path fill-rule="evenodd" clip-rule="evenodd" d="M26.1156 12.3887V17.8362C26.1156 20.646 25.3499 23.3463 23.1175 25.0354L16.0782 30.3617L9.03263 25.0359C6.79819 23.3467 6.03125 20.645 6.03125 17.8334C6.03125 14.5638 6.03125 11.3028 6.03125 8.03324C12.3932 4.30552 19.0134 3.56005 25.5112 7.63872L26.1156 12.3887Z" fill="#67CCD1"/>
<path fill-rule="evenodd" clip-rule="evenodd" d="M20.7917 26.7942L16.0784 30.361L9.03249 25.0355C6.79797 23.3461 6.03125 20.6449 6.03125 17.8329V8.03278C7.54775 7.14462 9.07838 6.4252 10.6189 5.90063C8.12788 14.3109 12.939 23.7275 20.7917 26.7942Z" fill="#27A2CC"/>
<path fill-rule="evenodd" clip-rule="evenodd" d="M25.927 12.5779L16.0204 22.5837L10.4457 16.5294C9.72838 15.7504 9.87375 14.5999 10.654 13.9114C11.4342 13.2229 12.5445 13.2666 13.2775 14.0308L16.1792 17.0556L30.7539 2.33489C31.1076 1.97765 31.5744 1.79762 32.0419 1.79529C33.6384 1.77658 34.6278 3.83798 33.4376 4.99202L25.927 12.5779Z" fill="#B1D952"/>
<path d="M33.8774 1.86551C32.9008 0.84286 31.2207 0.838271 30.2529 1.83911L28.729 3.37827C20.2878 -1.46649 11.1895 -1.09908 1.67717 4.47463C1.461 4.60129 1.32812 4.83314 1.32812 5.08377V17.7796C1.32812 19.9809 1.65536 21.9573 2.30079 23.6537C3.04852 25.6188 4.22727 27.2197 5.80435 28.4119L15.6541 35.8574C15.78 35.9527 15.9299 36.0002 16.0798 36.0002C16.2298 36.0002 16.3798 35.9526 16.5058 35.8573L26.347 28.4109C29.6122 25.929 30.8202 22.0182 30.8182 17.7835V8.64261L33.94 5.48966C34.9387 4.48091 34.9112 2.88901 33.8774 1.86551ZM29.4062 17.7835C29.4062 22.1244 28.0903 25.3212 25.495 27.2849L16.0796 34.409L6.65594 27.2854C4.05762 25.3213 2.74021 22.1231 2.74021 17.7795V5.49064C11.5306 0.457451 19.9212 0.0979524 27.6993 4.41822L16.1878 16.045L13.7877 13.5429C12.2109 11.8479 9.39983 12.9845 9.27854 15.2252C9.24437 15.884 9.47467 16.5173 9.92701 17.0086L15.5016 23.0628C15.6351 23.2079 15.8239 23.2907 16.021 23.2906C16.2093 23.2906 16.39 23.2154 16.5227 23.0814L26.4293 13.0756L29.4062 10.0688V17.7835ZM32.9366 4.49616C30.8097 6.6444 18.442 19.1359 16.0395 21.5624L10.9658 16.0521C10.4922 15.51 10.6638 14.8643 11.1218 14.4416C11.624 13.9986 12.301 14.0328 12.7688 14.5203L15.6704 17.5452C15.9327 17.8285 16.4142 17.8346 16.6815 17.5532L31.2563 2.83253C31.4657 2.62101 31.7462 2.50367 32.0461 2.50219C33.0254 2.49294 33.6781 3.7826 32.9366 4.49616Z" fill="#052A75"/>
</g>
<defs>
<clipPath id="clip0_7174_22966">
<rect width="36" height="36" fill="white" transform="translate(0 0.000244141)"/>
</clipPath>
</defs>
</svg>
