<svg width="37" height="36" viewBox="0 0 37 36" fill="none" xmlns="http://www.w3.org/2000/svg">
<g clipPath="url(#clip0_7174_23202)">
<path fill-rule="evenodd" clip-rule="evenodd" d="M15.793 23.5828C15.793 27.0276 18.6115 29.8462 22.0564 29.8462L29.3638 34.0218V29.8462C32.8088 29.8462 35.6273 27.0277 35.6273 23.5828V16.2754C35.6273 12.8305 32.8088 10.012 29.3638 10.012H15.793V23.5828Z" fill="#67CCD1"/>
<path fill-rule="evenodd" clip-rule="evenodd" d="M15.793 23.5828C15.793 24.6006 16.0392 25.5638 16.4748 26.4158C16.9307 26.4676 17.3939 26.4952 17.8637 26.4952C24.5828 26.4952 30.0296 21.0483 30.0296 14.3293C30.0296 12.8087 29.7499 11.3538 29.2404 10.012H15.9243L15.793 23.5828Z" fill="#27A2CC"/>
<path fill-rule="evenodd" clip-rule="evenodd" d="M1.03906 8.73417C1.03906 5.01975 4.0781 1.98071 7.79252 1.98071H15.6717C19.3861 1.98071 22.4251 5.01989 22.4251 8.73417V16.6133C22.4251 20.3277 19.3861 23.3668 15.6717 23.3668L7.79252 27.869V23.3668C4.0781 23.3668 1.03906 20.3277 1.03906 16.6133V8.73417Z" fill="#FDCB50"/>
<path d="M6.06784 8.19088C6.06784 5.94243 6.64066 3.82782 7.64789 1.98462C3.9996 2.06234 1.03906 5.07024 1.03906 8.73631V16.6154C1.03906 20.3299 4.0781 23.3689 7.79252 23.3689V27.8712L15.6716 23.3689C17.6996 23.3689 19.5262 22.4629 20.7668 21.0358C20.1983 21.1121 19.6184 21.1521 19.029 21.1521C11.8708 21.1521 6.06784 15.3492 6.06784 8.19088Z" fill="#FD8F01"/>
<path d="M11.7324 20.6528C10.718 20.635 10.8728 19.074 11.8709 19.2551C12.6884 19.3971 12.5622 20.6744 11.7324 20.6528Z" fill="white"/>
<path d="M29.3629 9.30505H23.1299V8.7354C23.1299 4.62222 19.7833 1.27563 15.6709 1.27563H7.79109C3.67862 1.27563 0.332031 4.62222 0.332031 8.7354V16.6145C0.332031 20.489 3.30238 23.6839 7.08521 24.0403V27.8698C7.08521 28.1218 7.21933 28.354 7.43674 28.4803C7.54686 28.5439 7.66897 28.5756 7.79109 28.5756C7.9125 28.5756 8.03321 28.5446 8.14191 28.4832L15.1443 24.4815C15.5784 27.8387 18.4118 30.4547 21.8636 30.5486L29.0127 34.6335C29.1207 34.6956 29.2421 34.7267 29.3629 34.7267C29.485 34.7267 29.6078 34.6949 29.7172 34.6314C29.9346 34.505 30.0687 34.2721 30.0687 34.0208V30.5154C33.5812 30.1603 36.332 27.1865 36.332 23.5815V16.2742C36.332 12.4314 33.2057 9.30505 29.3629 9.30505ZM7.79109 22.6618C4.4565 22.6618 1.7438 19.949 1.7438 16.6145V8.7354C1.7438 5.40081 4.4565 2.6874 7.79109 2.6874H15.6709C19.0054 2.6874 21.7181 5.40081 21.7181 8.7354V16.6145C21.7181 19.949 19.0054 22.6618 15.6709 22.6618C15.548 22.6618 15.4273 22.6935 15.32 22.7549L8.49697 26.6535V23.3676C8.49697 22.978 8.18144 22.6618 7.79109 22.6618ZM34.9203 23.5815C34.9203 26.6458 32.4271 29.1389 29.3629 29.1389C28.9725 29.1389 28.657 29.4552 28.657 29.8448V32.8046L22.4057 29.2321C22.2991 29.1714 22.1784 29.1389 22.0556 29.1389C19.1403 29.1389 16.7417 26.8829 16.5151 24.0255C20.2323 23.6048 23.1299 20.4418 23.1299 16.6145V10.7168H29.3629C32.4271 10.7168 34.9203 13.21 34.9203 16.2742V23.5815Z" fill="#052A75"/>
<path d="M25.7102 20.6534C24.8815 20.6721 24.7539 19.3981 25.572 19.255C26.5705 19.0746 26.7242 20.6337 25.7102 20.6534Z" fill="#052A75"/>
<path d="M29.1514 20.6527C28.3219 20.6733 28.196 19.3969 29.0138 19.255C30.0122 19.0743 30.1652 20.6353 29.1514 20.6527Z" fill="#052A75"/>
<path d="M11.7326 17.6836C11.3427 17.6836 11.0267 17.3676 11.0267 16.9777V13.5758C11.0267 13.186 11.3427 12.87 11.7326 12.87C12.4376 12.87 13.0937 12.588 13.5798 12.0758C14.0657 11.5641 14.3131 10.893 14.2764 10.1861C14.2076 8.86125 13.1135 7.80249 11.7855 7.77581C10.4935 7.75075 9.38779 8.69155 9.20984 9.96645C9.19353 10.0836 9.1852 10.2034 9.1852 10.3226C9.1852 10.7125 8.86918 11.0285 8.47932 11.0285C8.08946 11.0285 7.77344 10.7125 7.77344 10.3226C7.77344 10.1385 7.78628 9.95297 7.81155 9.77141C8.08826 7.78859 9.8092 6.32424 11.8139 6.36433C13.8783 6.40591 15.5793 8.05252 15.6862 10.113C15.7431 11.2103 15.3586 12.2527 14.6036 13.0479C14.0134 13.6696 13.2617 14.0731 12.4384 14.2198V16.9778C12.4385 17.3676 12.1224 17.6836 11.7326 17.6836Z" fill="white"/>
</g>
<defs>
<clipPath id="clip0_7174_23202">
<rect width="36" height="36" fill="white" transform="translate(0.332031 0.000244141)"/>
</clipPath>
</defs>
</svg>
