<svg width="24" height="24" viewBox="0 0 24 24" fill="none" xmlns="http://www.w3.org/2000/svg">
<g clip-path="url(#clip0_7175_20846)">
<path d="M12 24C18.6274 24 24 18.6274 24 12C24 5.37258 18.6274 0 12 0C5.37258 0 0 5.37258 0 12C0 18.6274 5.37258 24 12 24Z" fill="#F0F0F0"/>
<path d="M2.74219 4.36368H21.2563C20.5725 3.53563 19.7794 2.80134 18.8996 2.18188H5.09892C4.21913 2.80124 3.42605 3.53559 2.74219 4.36368Z" fill="#F0F0F0"/>
<path d="M0 12C0 12.3678 0.0174844 12.7315 0.049875 13.0909H23.9501C23.9825 12.7315 24 12.3678 24 12C24 11.6322 23.9825 11.2685 23.9501 10.9091H0.049875C0.0174844 11.2685 0 11.6322 0 12H0Z" fill="#F0F0F0"/>
<path d="M1.30981 17.4545H22.6927C23.046 16.7633 23.3342 16.0334 23.5494 15.2728H0.453125C0.668234 16.0334 0.956516 16.7633 1.30981 17.4545Z" fill="#F0F0F0"/>
<path d="M5.09892 21.8182H18.8995C19.7793 21.1988 20.5725 20.4645 21.2563 19.6364H2.74219C3.42605 20.4644 4.21913 21.1988 5.09892 21.8182Z" fill="#F0F0F0"/>
<path d="M0.453125 8.72728H23.5495C23.3343 7.9666 23.0461 7.23666 22.6927 6.54549H1.30986C0.956563 7.23666 0.668281 7.9666 0.453125 8.72728Z" fill="#F0F0F0"/>
<path d="M5.73828 2.1818H18.8995C16.9476 0.807516 14.5677 0 11.9991 0C10.4339 0 7.69016 0.807516 5.73828 2.1818Z" fill="#D80027"/>
<path d="M11.4805 6.54549H22.6936C22.2946 5.76488 21.8126 5.03368 21.2593 4.36369H11.4805V6.54549Z" fill="#D80027"/>
<path d="M11.4805 10.9091H23.9523C23.8848 10.16 23.7492 9.4304 23.5504 8.72733H11.4805V10.9091Z" fill="#D80027"/>
<path d="M0.452781 15.2728H23.549C23.7479 14.5697 23.8835 13.8401 23.951 13.091H0.0507812C0.118281 13.8401 0.253937 14.5697 0.452781 15.2728Z" fill="#D80027"/>
<path d="M2.74297 19.6363H21.2571C21.8105 18.9662 22.2924 18.2351 22.6915 17.4545H1.30859C1.70764 18.2351 2.18961 18.9663 2.74297 19.6363Z" fill="#D80027"/>
<path d="M12.0019 24C14.5705 24 16.9503 23.1925 18.9022 21.8182H5.10156C7.05344 23.1925 9.43328 24 12.0019 24Z" fill="#D80027"/>
<path d="M0.452734 8.72728C0.253891 9.43041 0.118281 10.1599 0.0507812 10.9091H12.0009V0C6.50809 0 1.87736 3.69056 0.452734 8.72728Z" fill="#0052B4"/>
<path d="M7.14308 3.13045L7.92003 5.52178H10.4347L8.40041 6.99984L9.17731 9.39131L7.14308 7.91334L5.10875 9.39131L5.88584 6.99984L3.85156 5.52178H6.36608L7.14308 3.13045Z" fill="#F0F0F0"/>
</g>
<defs>
<clipPath id="clip0_7175_20846">
<rect width="24" height="24" fill="white"/>
</clipPath>
</defs>
</svg>
