
<svg width="236" height="26" viewBox="0 0 236 26" fill="none" xmlns="http://www.w3.org/2000/svg">
<path d="M0.925781 25.5L0.92578 0.5" stroke="#CDD0D5" stroke-linecap="round"/>
<path d="M2.24414 25.5L2.24414 0.5" stroke="#CDD0D5" stroke-linecap="round"/>
<path d="M3.55859 25.5L3.55859 0.5" stroke="#CDD0D5" stroke-linecap="round"/>
<path d="M4.87695 25.5L4.87695 0.5" stroke="#CDD0D5" stroke-linecap="round"/>
<path d="M6.19434 25.5L6.19434 0.5" stroke="#CDD0D5" stroke-linecap="round"/>
<path d="M7.5127 25.5L7.51269 0.5" stroke="#CDD0D5" stroke-linecap="round"/>
<path d="M8.83105 25.5L8.83105 0.5" stroke="#CDD0D5" stroke-linecap="round"/>
<path d="M10.1455 25.5L10.1455 0.5" stroke="#CDD0D5" stroke-linecap="round"/>
<path d="M11.4629 25.5L11.4629 0.5" stroke="#CDD0D5" stroke-linecap="round"/>
<path d="M12.7773 25.5L12.7773 0.5" stroke="#CDD0D5" stroke-linecap="round"/>
<path d="M14.0957 25.5L14.0957 0.5" stroke="#CDD0D5" stroke-linecap="round"/>
<path d="M15.4141 25.5L15.4141 0.5" stroke="#CDD0D5" stroke-linecap="round"/>
<path d="M16.7324 25.5L16.7324 0.5" stroke="#CDD0D5" stroke-linecap="round"/>
<path d="M18.0498 25.5L18.0498 0.5" stroke="#CDD0D5" stroke-linecap="round"/>
<path d="M19.3643 23.5L19.3643 3.5" stroke="#CDD0D5" stroke-linecap="round"/>
<path d="M20.6826 23.5L20.6826 3.5" stroke="#CDD0D5" stroke-linecap="round"/>
<path d="M22.001 23.5L22.001 3.5" stroke="#CDD0D5" stroke-linecap="round"/>
<path d="M23.3154 23.5L23.3154 3.5" stroke="#CDD0D5" stroke-linecap="round"/>
<path d="M24.6338 23.5L24.6338 3.5" stroke="#CDD0D5" stroke-linecap="round"/>
<path d="M25.9473 23.5L25.9473 3.5" stroke="#CDD0D5" stroke-linecap="round"/>
<path d="M27.2656 23.5L27.2656 3.5" stroke="#CDD0D5" stroke-linecap="round"/>
<path d="M28.5879 23.5L28.5879 3.5" stroke="#CDD0D5" stroke-linecap="round"/>
<path d="M29.9023 23.5L29.9023 3.5" stroke="#CDD0D5" stroke-linecap="round"/>
<path d="M31.2197 23.5L31.2197 3.5" stroke="#CDD0D5" stroke-linecap="round"/>
<path d="M104.975 23.5L104.975 3.5" stroke="#CDD0D5" stroke-linecap="round"/>
<path d="M193.218 19.5L193.218 8.5" stroke="#CDD0D5" stroke-linecap="round"/>
<path d="M32.5342 23.5L32.5342 3.5" stroke="#CDD0D5" stroke-linecap="round"/>
<path d="M106.293 23.5L106.293 3.5" stroke="#CDD0D5" stroke-linecap="round"/>
<path d="M194.536 19.5L194.536 8.5" stroke="#CDD0D5" stroke-linecap="round"/>
<path d="M72.0479 23.5L72.0479 3.5" stroke="#CDD0D5" stroke-linecap="round"/>
<path d="M145.803 23.5L145.803 3.5" stroke="#CDD0D5" stroke-linecap="round"/>
<path d="M33.8525 23.5L33.8525 3.5" stroke="#CDD0D5" stroke-linecap="round"/>
<path d="M107.607 23.5L107.607 3.5" stroke="#CDD0D5" stroke-linecap="round"/>
<path d="M195.854 19.5L195.854 8.5" stroke="#CDD0D5" stroke-linecap="round"/>
<path d="M73.3662 23.5L73.3662 3.5" stroke="#CDD0D5" stroke-linecap="round"/>
<path d="M147.121 23.5L147.121 3.5" stroke="#CDD0D5" stroke-linecap="round"/>
<path d="M35.1709 23.5L35.1709 3.5" stroke="#CDD0D5" stroke-linecap="round"/>
<path d="M108.926 23.5L108.926 3.5" stroke="#CDD0D5" stroke-linecap="round"/>
<path d="M197.168 19.5L197.168 8.5" stroke="#CDD0D5" stroke-linecap="round"/>
<path d="M74.6846 23.5L74.6846 3.5" stroke="#CDD0D5" stroke-linecap="round"/>
<path d="M148.439 23.5L148.439 3.5" stroke="#CDD0D5" stroke-linecap="round"/>
<path d="M36.4854 23.5L36.4854 3.5" stroke="#CDD0D5" stroke-linecap="round"/>
<path d="M110.243 23.5L110.243 3.5" stroke="#CDD0D5" stroke-linecap="round"/>
<path d="M198.486 19.5L198.486 8.5" stroke="#CDD0D5" stroke-linecap="round"/>
<path d="M75.999 23.5L75.999 3.5" stroke="#CDD0D5" stroke-linecap="round"/>
<path d="M149.757 23.5L149.757 3.5" stroke="#CDD0D5" stroke-linecap="round"/>
<path d="M37.8037 23.5L37.8037 3.5" stroke="#CDD0D5" stroke-linecap="round"/>
<path d="M111.558 23.5L111.558 3.5" stroke="#CDD0D5" stroke-linecap="round"/>
<path d="M199.801 19.5L199.801 8.5" stroke="#CDD0D5" stroke-linecap="round"/>
<path d="M77.3164 23.5L77.3164 3.5" stroke="#CDD0D5" stroke-linecap="round"/>
<path d="M151.071 23.5L151.071 3.5" stroke="#CDD0D5" stroke-linecap="round"/>
<path d="M39.1211 23.5L39.1211 3.5" stroke="#CDD0D5" stroke-linecap="round"/>
<path d="M112.876 23.5L112.876 3.5" stroke="#CDD0D5" stroke-linecap="round"/>
<path d="M201.123 19.5L201.123 8.5" stroke="#CDD0D5" stroke-linecap="round"/>
<path d="M78.6309 23.5L78.6309 3.5" stroke="#CDD0D5" stroke-linecap="round"/>
<path d="M152.39 23.5L152.39 3.5" stroke="#CDD0D5" stroke-linecap="round"/>
<path d="M40.4395 23.5L40.4395 3.5" stroke="#CDD0D5" stroke-linecap="round"/>
<path d="M114.194 23.5L114.194 3.5" stroke="#CDD0D5" stroke-linecap="round"/>
<path d="M202.44 19.5L202.44 8.5" stroke="#CDD0D5" stroke-linecap="round"/>
<path d="M79.9492 23.5L79.9492 3.5" stroke="#CDD0D5" stroke-linecap="round"/>
<path d="M153.704 23.5L153.704 3.5" stroke="#CDD0D5" stroke-linecap="round"/>
<path d="M41.7578 23.5L41.7578 3.5" stroke="#CDD0D5" stroke-linecap="round"/>
<path d="M115.513 23.5L115.513 3.5" stroke="#CDD0D5" stroke-linecap="round"/>
<path d="M203.755 19.5L203.755 8.5" stroke="#CDD0D5" stroke-linecap="round"/>
<path d="M81.2676 23.5L81.2676 3.5" stroke="#CDD0D5" stroke-linecap="round"/>
<path d="M155.022 23.5L155.022 3.5" stroke="#CDD0D5" stroke-linecap="round"/>
<path d="M43.0723 20.5L43.0723 6.5" stroke="#CDD0D5" stroke-linecap="round"/>
<path d="M116.83 20.5L116.83 6.5" stroke="#CDD0D5" stroke-linecap="round"/>
<path d="M205.073 17.5L205.073 10.5" stroke="#CDD0D5" stroke-linecap="round"/>
<path d="M44.3896 20.5L44.3896 6.5" stroke="#CDD0D5" stroke-linecap="round"/>
<path d="M118.145 20.5L118.145 6.5" stroke="#CDD0D5" stroke-linecap="round"/>
<path d="M206.388 17.5L206.388 10.5" stroke="#CDD0D5" stroke-linecap="round"/>
<path d="M45.7041 20.5L45.7041 6.5" stroke="#CDD0D5" stroke-linecap="round"/>
<path d="M119.463 20.5L119.463 6.5" stroke="#CDD0D5" stroke-linecap="round"/>
<path d="M207.706 17.5L207.706 10.5" stroke="#CDD0D5" stroke-linecap="round"/>
<path d="M47.0225 20.5L47.0225 6.5" stroke="#CDD0D5" stroke-linecap="round"/>
<path d="M120.781 20.5L120.781 6.5" stroke="#CDD0D5" stroke-linecap="round"/>
<path d="M209.023 17.5L209.023 10.5" stroke="#CDD0D5" stroke-linecap="round"/>
<path d="M82.5859 17.5L82.5859 8.5" stroke="#CDD0D5" stroke-linecap="round"/>
<path d="M156.34 17.5L156.34 8.5" stroke="#CDD0D5" stroke-linecap="round"/>
<path d="M48.3408 20.5L48.3408 6.5" stroke="#CDD0D5" stroke-linecap="round"/>
<path d="M122.096 20.5L122.096 6.5" stroke="#CDD0D5" stroke-linecap="round"/>
<path d="M210.338 17.5L210.338 10.5" stroke="#CDD0D5" stroke-linecap="round"/>
<path d="M83.9033 17.5L83.9033 8.5" stroke="#CDD0D5" stroke-linecap="round"/>
<path d="M157.658 17.5L157.658 8.5" stroke="#CDD0D5" stroke-linecap="round"/>
<path d="M49.6592 20.5L49.6592 6.5" stroke="#CDD0D5" stroke-linecap="round"/>
<path d="M123.413 20.5L123.413 6.5" stroke="#CDD0D5" stroke-linecap="round"/>
<path d="M211.66 17.5L211.66 10.5" stroke="#CDD0D5" stroke-linecap="round"/>
<path d="M85.2178 17.5L85.2178 8.5" stroke="#CDD0D5" stroke-linecap="round"/>
<path d="M158.977 17.5L158.977 8.5" stroke="#CDD0D5" stroke-linecap="round"/>
<path d="M50.9766 20.5L50.9766 6.5" stroke="#CDD0D5" stroke-linecap="round"/>
<path d="M124.731 20.5L124.731 6.5" stroke="#CDD0D5" stroke-linecap="round"/>
<path d="M212.975 17.5L212.975 10.5" stroke="#CDD0D5" stroke-linecap="round"/>
<path d="M86.5361 17.5L86.5361 8.5" stroke="#CDD0D5" stroke-linecap="round"/>
<path d="M160.291 17.5L160.291 8.5" stroke="#CDD0D5" stroke-linecap="round"/>
<path d="M52.291 20.5L52.291 6.5" stroke="#CDD0D5" stroke-linecap="round"/>
<path d="M126.05 20.5L126.05 6.5" stroke="#CDD0D5" stroke-linecap="round"/>
<path d="M214.293 17.5L214.293 10.5" stroke="#CDD0D5" stroke-linecap="round"/>
<path d="M87.8545 17.5L87.8545 8.5" stroke="#CDD0D5" stroke-linecap="round"/>
<path d="M176.097 16.5L176.097 11.5" stroke="#CDD0D5" stroke-linecap="round"/>
<path d="M161.609 17.5L161.609 8.5" stroke="#CDD0D5" stroke-linecap="round"/>
<path d="M53.6094 20.5L53.6094 6.5" stroke="#CDD0D5" stroke-linecap="round"/>
<path d="M127.364 20.5L127.364 6.5" stroke="#CDD0D5" stroke-linecap="round"/>
<path d="M215.61 17.5L215.61 10.5" stroke="#CDD0D5" stroke-linecap="round"/>
<path d="M89.1689 17.5L89.1689 8.5" stroke="#CDD0D5" stroke-linecap="round"/>
<path d="M177.411 16.5L177.411 11.5" stroke="#CDD0D5" stroke-linecap="round"/>
<path d="M162.927 17.5L162.927 8.5" stroke="#CDD0D5" stroke-linecap="round"/>
<path d="M54.9277 20.5L54.9277 6.5" stroke="#CDD0D5" stroke-linecap="round"/>
<path d="M128.683 20.5L128.683 6.5" stroke="#CDD0D5" stroke-linecap="round"/>
<path d="M216.925 17.5L216.925 10.5" stroke="#CDD0D5" stroke-linecap="round"/>
<path d="M90.4863 17.5L90.4863 8.5" stroke="#CDD0D5" stroke-linecap="round"/>
<path d="M178.733 16.5L178.733 11.5" stroke="#CDD0D5" stroke-linecap="round"/>
<path d="M164.241 17.5L164.241 8.5" stroke="#CDD0D5" stroke-linecap="round"/>
<path d="M56.2422 20.5L56.2422 6.5" stroke="#CDD0D5" stroke-linecap="round"/>
<path d="M130 20.5L130 6.5" stroke="#CDD0D5" stroke-linecap="round"/>
<path d="M218.243 17.5L218.243 10.5" stroke="#CDD0D5" stroke-linecap="round"/>
<path d="M91.8008 17.5L91.8008 8.5" stroke="#CDD0D5" stroke-linecap="round"/>
<path d="M180.048 16.5L180.048 11.5" stroke="#CDD0D5" stroke-linecap="round"/>
<path d="M165.56 17.5L165.56 8.5" stroke="#CDD0D5" stroke-linecap="round"/>
<path d="M57.5596 20.5L57.5596 6.5" stroke="#CDD0D5" stroke-linecap="round"/>
<path d="M131.314 20.5L131.314 6.5" stroke="#CDD0D5" stroke-linecap="round"/>
<path d="M219.558 17.5L219.558 10.5" stroke="#CDD0D5" stroke-linecap="round"/>
<path d="M93.123 17.5L93.123 8.5" stroke="#CDD0D5" stroke-linecap="round"/>
<path d="M181.366 16.5L181.366 11.5" stroke="#CDD0D5" stroke-linecap="round"/>
<path d="M166.878 17.5L166.878 8.5" stroke="#CDD0D5" stroke-linecap="round"/>
<path d="M58.874 20.5L58.874 6.5" stroke="#CDD0D5" stroke-linecap="round"/>
<path d="M132.633 20.5L132.633 6.5" stroke="#CDD0D5" stroke-linecap="round"/>
<path d="M220.876 17.5L220.876 10.5" stroke="#CDD0D5" stroke-linecap="round"/>
<path d="M94.4375 17.5L94.4375 8.5" stroke="#CDD0D5" stroke-linecap="round"/>
<path d="M182.684 16.5L182.684 11.5" stroke="#CDD0D5" stroke-linecap="round"/>
<path d="M168.196 17.5L168.196 8.5" stroke="#CDD0D5" stroke-linecap="round"/>
<path d="M60.1963 20.5L60.1963 6.5" stroke="#CDD0D5" stroke-linecap="round"/>
<path d="M133.951 20.5L133.951 6.5" stroke="#CDD0D5" stroke-linecap="round"/>
<path d="M222.197 17.5L222.197 10.5" stroke="#CDD0D5" stroke-linecap="round"/>
<path d="M95.7559 17.5L95.7559 8.5" stroke="#CDD0D5" stroke-linecap="round"/>
<path d="M183.998 16.5L183.998 11.5" stroke="#CDD0D5" stroke-linecap="round"/>
<path d="M169.514 17.5L169.514 8.5" stroke="#CDD0D5" stroke-linecap="round"/>
<path d="M61.5146 20.5L61.5146 6.5" stroke="#CDD0D5" stroke-linecap="round"/>
<path d="M135.266 20.5L135.266 6.5" stroke="#CDD0D5" stroke-linecap="round"/>
<path d="M223.512 17.5L223.512 10.5" stroke="#CDD0D5" stroke-linecap="round"/>
<path d="M97.0732 17.5L97.0732 8.5" stroke="#CDD0D5" stroke-linecap="round"/>
<path d="M185.316 16.5L185.316 11.5" stroke="#CDD0D5" stroke-linecap="round"/>
<path d="M170.828 17.5L170.828 8.5" stroke="#CDD0D5" stroke-linecap="round"/>
<path d="M62.8291 20.5L62.8291 6.5" stroke="#CDD0D5" stroke-linecap="round"/>
<path d="M136.587 20.5L136.587 6.5" stroke="#CDD0D5" stroke-linecap="round"/>
<path d="M224.83 17.5L224.83 10.5" stroke="#CDD0D5" stroke-linecap="round"/>
<path d="M98.3877 17.5L98.3877 8.5" stroke="#CDD0D5" stroke-linecap="round"/>
<path d="M186.631 16.5L186.631 11.5" stroke="#CDD0D5" stroke-linecap="round"/>
<path d="M172.146 17.5L172.146 8.5" stroke="#CDD0D5" stroke-linecap="round"/>
<path d="M64.1465 20.5L64.1465 6.5" stroke="#CDD0D5" stroke-linecap="round"/>
<path d="M137.901 20.5L137.901 6.5" stroke="#CDD0D5" stroke-linecap="round"/>
<path d="M226.145 17.5L226.145 10.5" stroke="#CDD0D5" stroke-linecap="round"/>
<path d="M99.7061 17.5L99.7061 8.5" stroke="#CDD0D5" stroke-linecap="round"/>
<path d="M187.949 16.5L187.949 11.5" stroke="#CDD0D5" stroke-linecap="round"/>
<path d="M173.461 17.5L173.461 8.5" stroke="#CDD0D5" stroke-linecap="round"/>
<path d="M65.4609 20.5L65.4609 6.5" stroke="#CDD0D5" stroke-linecap="round"/>
<path d="M139.22 20.5L139.22 6.5" stroke="#CDD0D5" stroke-linecap="round"/>
<path d="M227.463 17.5L227.463 10.5" stroke="#CDD0D5" stroke-linecap="round"/>
<path d="M101.024 17.5L101.024 8.5" stroke="#CDD0D5" stroke-linecap="round"/>
<path d="M189.267 16.5L189.267 11.5" stroke="#CDD0D5" stroke-linecap="round"/>
<path d="M174.779 17.5L174.779 8.5" stroke="#CDD0D5" stroke-linecap="round"/>
<path d="M66.7793 20.5L66.7793 6.5" stroke="#CDD0D5" stroke-linecap="round"/>
<path d="M140.534 20.5L140.534 6.5" stroke="#CDD0D5" stroke-linecap="round"/>
<path d="M228.78 17.5L228.78 10.5" stroke="#CDD0D5" stroke-linecap="round"/>
<path d="M102.339 17.5L102.339 8.5" stroke="#CDD0D5" stroke-linecap="round"/>
<path d="M190.585 16.5L190.585 11.5" stroke="#CDD0D5" stroke-linecap="round"/>
<path d="M68.0977 20.5L68.0977 6.5" stroke="#CDD0D5" stroke-linecap="round"/>
<path d="M141.853 20.5L141.853 6.5" stroke="#CDD0D5" stroke-linecap="round"/>
<path d="M230.095 17.5L230.095 10.5" stroke="#CDD0D5" stroke-linecap="round"/>
<path d="M103.66 17.5L103.66 8.5" stroke="#CDD0D5" stroke-linecap="round"/>
<path d="M191.903 16.5L191.903 11.5" stroke="#CDD0D5" stroke-linecap="round"/>
<path d="M69.4121 20.5L69.4121 6.5" stroke="#CDD0D5" stroke-linecap="round"/>
<path d="M143.17 20.5L143.17 6.5" stroke="#CDD0D5" stroke-linecap="round"/>
<path d="M231.413 17.5L231.413 10.5" stroke="#CDD0D5" stroke-linecap="round"/>
<path d="M70.7334 20.5L70.7334 6.5" stroke="#CDD0D5" stroke-linecap="round"/>
<path d="M144.484 20.5L144.484 6.5" stroke="#CDD0D5" stroke-linecap="round"/>
<path d="M232.731 17.5L232.731 10.5" stroke="#CDD0D5" stroke-linecap="round"/>
<path d="M234.05 17.5L234.05 10.5" stroke="#CDD0D5" stroke-linecap="round"/>
<path d="M235.367 17.5L235.367 10.5" stroke="#CDD0D5" stroke-linecap="round"/>
</svg>
