
<svg width="33" height="32" viewBox="0 0 33 32" fill="none" xmlns="http://www.w3.org/2000/svg">
<g clip-path="url(#clip0_17443_24005)">
<path d="M24.866 31.4H8.46602C6.14642 31.4 4.26602 29.5196 4.26602 27.2V4.8C4.26602 2.4804 6.14642 0.6 8.46602 0.6H17.1371C18.2397 0.6 19.2981 1.03361 20.0838 1.80722L27.8128 9.41728C28.6145 10.2067 29.066 11.2849 29.066 12.4101V27.2C29.066 29.5196 27.1856 31.4 24.866 31.4Z" fill="white" stroke="#CACFD8" strokeWidth="1.2"/>
<path d="M18.666 1V7.8C18.666 9.56731 20.0987 11 21.866 11H28.666" stroke="#CACFD8" strokeWidth="1.2"/>
<path d="M0.666016 17C0.666016 15.3431 2.00916 14 3.66602 14H24.666C26.3229 14 27.666 15.3431 27.666 17V25C27.666 26.6569 26.3229 28 24.666 28H3.66602C2.00916 28 0.666016 26.6569 0.666016 25V17Z" fill="#FB3748"/>
<path d="M5.64414 24L3.83789 17.6H5.08477L6.23789 22.3031H6.29727L7.52852 17.6H8.66289L9.89727 22.3062H9.95352L11.1066 17.6H12.3535L10.5473 24H9.40352L8.12227 19.5094H8.07227L6.78789 24H5.64414ZM13.5537 24H12.3162L14.5694 17.6H16.0006L18.2569 24H17.0194L15.31 18.9125H15.26L13.5537 24ZM13.5944 21.4906H16.9694V22.4219H13.5944V21.4906ZM19.4016 17.6L21.0672 22.6375H21.1329L22.7954 17.6H24.0704L21.8141 24H20.3829L18.1297 17.6H19.4016Z" fill="white"/>
</g>
<defs>
<clipPath id="clip0_17443_24005">
<rect width="32" height="32" fill="white" transform="translate(0.666016)"/>
</clipPath>
</defs>
</svg>
